<?xml version="1.0" encoding="utf-8"?>
<!-- Generator: Adobe Illustrator 27.0.0, SVG Export Plug-In . SVG Version: 6.00 Build 0)  -->
<svg version="1.1" xmlns="http://www.w3.org/2000/svg" xmlns:xlink="http://www.w3.org/1999/xlink" x="0px" y="0px"
	 viewBox="0 0 173.37 28.1" style="enable-background:new 0 0 173.37 28.1;" xml:space="preserve">
<style type="text/css">
	.st0{fill:#D48128;}
	.st1{fill:#029B84;}
	.st2{fill:#1675BC;}
</style>
<g id="Layer_1">
	<g>
		<g>
			<path class="st0" d="M0,22.71l1.03-2.64c0-0.02,0.02-0.06,0.06-0.12c0.04-0.06,0.1-0.14,0.18-0.24c0.06-0.08,0.11-0.16,0.16-0.24
				c0.05-0.08,0.09-0.15,0.13-0.21c0-0.02,0-0.05,0.01-0.09c0.01-0.04,0.02-0.09,0.04-0.15c0.02-0.04,0.03-0.09,0.04-0.15
				s0.02-0.13,0.04-0.21c0.12-0.18,0.23-0.4,0.34-0.65c0.11-0.25,0.21-0.54,0.31-0.86c0.2-0.73,0.37-1.32,0.53-1.77
				c0.16-0.45,0.29-0.77,0.41-0.95c0.14-0.24,0.27-0.5,0.41-0.76c0.14-0.26,0.27-0.54,0.41-0.82c0.12-0.26,0.24-0.53,0.38-0.8
				c0.14-0.27,0.28-0.55,0.44-0.83c0.06-0.08,0.14-0.28,0.25-0.59c0.11-0.31,0.24-0.71,0.4-1.2c0.08-0.24,0.15-0.46,0.21-0.67
				S5.9,8.35,5.96,8.19c0.06-0.16,0.11-0.3,0.16-0.42c0.05-0.12,0.1-0.21,0.16-0.27c-0.02,0-0.04,0.01-0.07,0.02
				S6.14,7.53,6.08,7.55C6.04,7.57,5.99,7.58,5.93,7.59C5.87,7.6,5.81,7.62,5.73,7.64c-0.02,0-0.04,0.01-0.06,0.02
				C5.65,7.67,5.63,7.67,5.61,7.67C5.57,7.69,5.54,7.7,5.52,7.7c-0.22,0-0.4-0.01-0.54-0.04S4.72,7.57,4.64,7.49
				C4.52,7.53,4.41,7.56,4.3,7.58C4.2,7.6,4.07,7.61,3.94,7.61C3.78,7.63,3.62,7.64,3.45,7.64c-0.17,0-0.33,0-0.48,0
				c-0.24,0-0.45,0-0.63-0.01C2.15,7.62,1.98,7.58,1.82,7.52C1.64,7.5,1.49,7.44,1.37,7.35C1.24,7.26,1.13,7.15,1.03,7
				c0-0.24,0-0.47,0.01-0.7s0.03-0.43,0.07-0.64c0.02-0.18,0.07-0.33,0.15-0.44s0.18-0.17,0.29-0.17c0.02,0,0.06,0.01,0.12,0.03
				c0.06,0.02,0.12,0.04,0.18,0.06C1.91,5.2,1.96,5.21,2.01,5.21s0.09,0,0.13,0c0.18,0,0.33,0,0.47,0c0.14,0,0.26-0.01,0.38-0.03
				c0.1,0,0.2-0.03,0.31-0.08c0.11-0.05,0.22-0.12,0.34-0.2c0.1,0,0.23,0.01,0.4,0.03C4.21,4.96,4.41,4.98,4.64,5
				c0.2,0.04,0.38,0.07,0.54,0.08c0.17,0.01,0.31,0.02,0.43,0.02c0.06,0,0.16,0,0.31-0.02C6.07,5.07,6.23,5.03,6.4,4.97
				c0.08,0,0.16-0.01,0.24-0.03c0.08-0.02,0.15-0.03,0.21-0.03C6.9,4.89,6.95,4.88,6.99,4.87c0.04-0.01,0.08-0.01,0.12-0.01
				c0.18,0,0.36,0,0.56,0c0.2,0,0.4,0,0.62,0c0.21,0,0.43,0,0.65,0c0.21,0,0.44-0.01,0.68-0.03c0.29,0,0.58,0.01,0.85,0.03
				c0.27,0.02,0.55,0.03,0.82,0.03c0.24,0.04,0.47,0.08,0.72,0.11c0.24,0.03,0.47,0.08,0.69,0.14c0,0.06,0.01,0.13,0.03,0.2
				c0.02,0.07,0.04,0.14,0.06,0.2c0,0.06,0.01,0.12,0.03,0.18s0.04,0.11,0.06,0.15c0,0.06,0,0.12,0.01,0.17s0.01,0.09,0.01,0.11
				c0,0.04,0,0.08,0.01,0.11s0.01,0.06,0.01,0.08c0,0.26-0.03,0.48-0.1,0.67c-0.07,0.18-0.16,0.33-0.28,0.46
				c-0.06,0.04-0.12,0.08-0.18,0.11s-0.12,0.04-0.18,0.04c-0.08,0.04-0.15,0.06-0.21,0.06s-0.11,0-0.15,0c-0.06,0-0.14,0-0.25-0.01
				c-0.11-0.01-0.22-0.05-0.34-0.11c-0.08,0-0.15-0.01-0.22-0.03c-0.07-0.02-0.12-0.03-0.16-0.03c-0.06-0.02-0.11-0.04-0.15-0.04
				C10.68,7.4,10.65,7.4,10.63,7.4c-0.12,0-0.23,0-0.34,0.02c-0.11,0.01-0.22,0.01-0.34,0.01c-0.12,0-0.23,0-0.34,0
				c-0.11,0-0.21,0-0.31,0c-0.24,0-0.46,0-0.68,0c-0.22,0-0.43,0-0.65,0L7.78,7.55c-0.04,0-0.08-0.01-0.12-0.03
				C7.63,7.5,7.58,7.49,7.52,7.49C7.5,7.51,7.48,7.52,7.46,7.53C7.44,7.54,7.42,7.55,7.4,7.55C7.38,7.57,7.36,7.58,7.34,7.59
				S7.3,7.62,7.28,7.64C7.26,7.66,7.25,7.68,7.23,7.69c-0.02,0.01-0.02,0.05,0,0.11s0.05,0.15,0.09,0.26
				C7.35,8.16,7.4,8.27,7.46,8.37c0.04,0.1,0.08,0.2,0.12,0.3s0.09,0.2,0.15,0.3C7.8,9.22,7.88,9.44,7.95,9.64
				c0.07,0.2,0.13,0.4,0.19,0.61c0,0.04,0.02,0.09,0.06,0.15c0.04,0.06,0.1,0.13,0.18,0.21c0.06,0.1,0.11,0.19,0.16,0.26
				c0.05,0.07,0.09,0.14,0.13,0.2s0.07,0.12,0.1,0.17s0.05,0.09,0.07,0.11c0.08,0.2,0.16,0.41,0.24,0.61
				c0.08,0.2,0.17,0.42,0.26,0.64c0.1,0.24,0.2,0.49,0.29,0.73c0.1,0.24,0.21,0.5,0.32,0.76c0.16,0.49,0.32,0.96,0.49,1.42
				c0.17,0.46,0.35,0.92,0.54,1.36c0.06,0.18,0.14,0.38,0.25,0.59c0.11,0.21,0.24,0.44,0.4,0.68c0.08,0.18,0.17,0.36,0.28,0.53
				c0.11,0.17,0.22,0.33,0.34,0.47c0.02,0.1,0.04,0.19,0.07,0.26c0.03,0.07,0.05,0.15,0.07,0.23s0.04,0.15,0.06,0.21
				s0.05,0.12,0.09,0.18c0.04,0.12,0.07,0.24,0.1,0.35c0.03,0.11,0.04,0.2,0.04,0.26c0,0.12,0.04,0.28,0.12,0.47
				c0.08,0.19,0.18,0.42,0.29,0.68c0.06,0.14,0.1,0.26,0.13,0.36c0.03,0.1,0.04,0.16,0.04,0.18c-0.06,0.06-0.11,0.11-0.16,0.15
				c-0.05,0.04-0.09,0.08-0.13,0.12c-0.06,0.04-0.11,0.08-0.15,0.12c-0.04,0.04-0.08,0.07-0.12,0.09c-0.1,0.08-0.22,0.14-0.35,0.17
				c-0.14,0.03-0.31,0.04-0.53,0.04c-0.02,0-0.04,0.01-0.06,0.02c-0.02,0.01-0.03,0.01-0.04,0.01s-0.02,0-0.03,0
				s-0.02,0.01-0.04,0.03c-0.02,0.02-0.04,0.04-0.06,0.05c-0.02,0.01-0.04,0.03-0.06,0.05c-0.02,0.02-0.04,0.04-0.06,0.04
				c-0.02,0.01-0.04,0.02-0.04,0.02s-0.06-0.03-0.15-0.08c-0.09-0.05-0.21-0.11-0.37-0.17c-0.2-0.06-0.35-0.15-0.46-0.26
				c-0.11-0.11-0.17-0.23-0.19-0.35c-0.1-0.28-0.19-0.56-0.28-0.82c-0.09-0.26-0.19-0.52-0.31-0.79c-0.08-0.12-0.15-0.24-0.22-0.36
				s-0.14-0.25-0.22-0.39c-0.08-0.12-0.16-0.26-0.24-0.41s-0.16-0.31-0.24-0.47c-0.04-0.04-0.09-0.12-0.15-0.24S8.52,18.6,8.46,18.4
				c-0.08-0.2-0.16-0.43-0.25-0.68s-0.18-0.55-0.28-0.89c-0.22-0.65-0.41-1.17-0.59-1.56c-0.18-0.39-0.35-0.68-0.53-0.86l-0.38,0.45
				c-0.59,1.39-1.1,2.62-1.54,3.67c-0.44,1.05-0.81,1.93-1.1,2.64c-0.37,0.79-0.74,1.37-1.12,1.74s-0.75,0.56-1.15,0.56
				C1.31,23.4,1.1,23.35,0.9,23.3c-0.21-0.05-0.4-0.11-0.57-0.17L0,22.71z M13.6,13.07c0-0.3,0.06-0.57,0.18-0.79
				c0.12-0.22,0.31-0.4,0.59-0.55c0.27-0.12,0.57-0.22,0.88-0.29c0.31-0.07,0.66-0.11,1.03-0.11c0.08,0,0.18,0.03,0.29,0.09
				c0.12,0.06,0.25,0.14,0.41,0.24l-0.09-2.36c0-0.24,0-0.55,0.01-0.92s0.03-0.82,0.07-1.35c0-0.24,0.01-0.47,0.03-0.7
				s0.04-0.41,0.06-0.58c0.02-0.18,0.03-0.34,0.04-0.47c0.01-0.13,0.01-0.25,0.01-0.35c0-0.06,0-0.13-0.01-0.2
				c-0.01-0.07-0.03-0.16-0.04-0.26c-0.02-0.1-0.04-0.21-0.06-0.33c-0.02-0.12-0.03-0.26-0.03-0.42c-0.06-0.26-0.09-0.5-0.1-0.71
				c-0.01-0.21-0.01-0.39-0.01-0.53l0.26-0.27c0-0.12,0-0.24,0-0.36c0-0.12,0-0.25,0-0.39c0-0.12,0.02-0.24,0.06-0.35
				s0.1-0.23,0.18-0.35c0.06,0,0.12-0.01,0.18-0.03c0.06-0.02,0.13-0.04,0.21-0.06c0.02,0,0.05,0,0.1,0c0.05,0,0.1,0,0.16,0
				s0.13,0,0.21-0.02c0.08-0.01,0.17-0.01,0.26-0.01c0.06,0,0.11,0,0.16,0.01c0.05,0.01,0.09,0.02,0.13,0.02c0.06,0,0.11,0,0.15,0
				c0.04,0,0.09,0,0.15,0c0.08,0.02,0.17,0.04,0.26,0.08c0.1,0.03,0.21,0.08,0.35,0.14c0,0.14,0.01,0.33,0.03,0.56
				c0.02,0.23,0.06,0.5,0.12,0.8c0.04,0.34,0.07,0.63,0.1,0.86s0.04,0.42,0.04,0.56s-0.01,0.31-0.03,0.5
				c-0.02,0.19-0.04,0.39-0.06,0.59c-0.04,0.22-0.06,0.41-0.06,0.55c0,0.14,0,0.22,0,0.24c0,0.22,0,0.49,0.01,0.8
				c0.01,0.31,0.04,0.68,0.1,1.11c0,0.22,0.01,0.43,0.03,0.62C19.99,8.27,20,8.45,20,8.61c0.02,0.16,0.03,0.31,0.04,0.45
				c0.01,0.14,0.01,0.26,0.01,0.36c0,0.12,0,0.24-0.01,0.35c-0.01,0.11-0.01,0.22-0.01,0.32c0,0.12-0.01,0.24-0.01,0.36
				C20.01,10.58,20,10.7,20,10.82c-0.06,0.65-0.1,1.16-0.12,1.55s-0.03,0.64-0.03,0.76c0,0.24,0,0.53,0.01,0.86
				c0.01,0.33,0.03,0.71,0.07,1.14c0,0.22,0.01,0.43,0.03,0.62c0.02,0.19,0.03,0.36,0.03,0.5c0.02,0.16,0.03,0.3,0.04,0.41
				c0.01,0.11,0.01,0.2,0.01,0.26l-0.09,1.58c0,0.1,0,0.23,0.02,0.38c0.01,0.15,0.03,0.32,0.07,0.5c0.02,0.24,0.04,0.44,0.06,0.59
				s0.03,0.27,0.03,0.35c0,0.12-0.01,0.26-0.03,0.42c-0.02,0.16-0.04,0.35-0.06,0.58c-0.04,0.22-0.06,0.42-0.07,0.59
				c-0.01,0.17-0.02,0.32-0.02,0.44c0,0.16,0,0.35,0.02,0.56c0.01,0.21,0.03,0.46,0.07,0.74c0.02,0.28,0.04,0.54,0.06,0.76
				c0.02,0.22,0.03,0.42,0.03,0.61c0,0.06,0,0.14,0,0.23s0.02,0.21,0.06,0.35c0,0.06,0,0.12,0.01,0.17c0.01,0.05,0.01,0.1,0.01,0.14
				c0,0.04,0,0.08,0.01,0.11s0.01,0.09,0.01,0.17c0,0.08-0.02,0.18-0.06,0.3s-0.09,0.23-0.15,0.33c-0.06,0.02-0.16,0.06-0.31,0.12
				c-0.15,0.06-0.34,0.14-0.57,0.24c-0.12,0.06-0.23,0.11-0.34,0.15s-0.2,0.07-0.28,0.09c-0.08,0.04-0.15,0.07-0.22,0.08
				c-0.07,0.01-0.13,0.02-0.19,0.02c-0.14,0-0.26-0.02-0.38-0.05c-0.12-0.03-0.22-0.08-0.29-0.14c-0.06-0.06-0.11-0.13-0.16-0.2
				c-0.05-0.07-0.08-0.14-0.1-0.2c-0.1-0.12-0.16-0.22-0.19-0.29c-0.03-0.07-0.04-0.14-0.04-0.2c0-0.1,0-0.23,0-0.39
				c0-0.16,0.02-0.34,0.06-0.55c0.04-0.2,0.07-0.37,0.09-0.5c0.02-0.13,0.03-0.24,0.03-0.32l-0.03-2.64l0.06-1.27
				c0-0.06,0-0.13-0.01-0.21c-0.01-0.08-0.01-0.17-0.01-0.27c0-0.08,0-0.17-0.01-0.27c-0.01-0.1-0.01-0.2-0.01-0.3
				c-0.08-0.49-0.13-0.89-0.15-1.21s-0.03-0.56-0.03-0.7c0-0.06,0.01-0.17,0.03-0.32c0.02-0.15,0.07-0.37,0.15-0.65
				c0-0.08,0.01-0.17,0.03-0.27c0.02-0.1,0.03-0.2,0.03-0.3c0-0.1-0.02-0.21-0.06-0.32c-0.04-0.11-0.09-0.24-0.15-0.38
				c-0.12,0.06-0.22,0.12-0.31,0.17c-0.09,0.05-0.17,0.09-0.25,0.11c-0.1,0.04-0.2,0.06-0.29,0.06s-0.21,0-0.32,0
				c-0.18,0-0.35-0.03-0.51-0.08c-0.17-0.05-0.34-0.14-0.51-0.26c-0.12-0.04-0.25-0.11-0.41-0.21c-0.16-0.1-0.33-0.24-0.53-0.42
				c-0.06-0.06-0.1-0.15-0.13-0.27c-0.03-0.12-0.04-0.3-0.04-0.55c-0.04-0.18-0.06-0.36-0.06-0.53S13.6,13.23,13.6,13.07z
				 M20.91,2.33c0.02-0.06,0.04-0.16,0.07-0.3s0.06-0.33,0.1-0.58c0.02-0.2,0.07-0.38,0.15-0.53s0.18-0.26,0.29-0.32
				c0.18,0,0.36,0,0.54,0c0.19,0,0.37,0,0.54,0c0.18,0.04,0.35,0.08,0.53,0.12c0.18,0.04,0.35,0.09,0.53,0.15
				c0.06,0.45,0.11,0.91,0.16,1.38s0.09,0.95,0.13,1.44c0.02,0.53,0.04,1.05,0.07,1.58c0.03,0.53,0.04,1.06,0.04,1.61
				c0,0.28-0.01,0.55-0.01,0.8c-0.01,0.25-0.02,0.5-0.02,0.74c0,0.22,0,0.44,0,0.64c0,0.2,0,0.38,0,0.55
				c-0.06,1.39-0.09,2.47-0.1,3.23s-0.01,1.19-0.01,1.29v4.4c0,0.12,0,0.26,0.01,0.42s0.04,0.34,0.1,0.55
				c0,0.12,0.01,0.23,0.03,0.33c0.02,0.1,0.03,0.18,0.03,0.24c0.02,0.08,0.03,0.15,0.04,0.21c0.01,0.06,0.01,0.11,0.01,0.15
				c0,0.06,0,0.12-0.01,0.18c-0.01,0.06-0.01,0.14-0.01,0.24c0,0.08,0,0.17-0.01,0.27c-0.01,0.1-0.01,0.2-0.01,0.3
				c-0.04,0.24-0.06,0.42-0.06,0.55s0,0.2,0,0.24c0,0.16,0,0.37,0,0.64s0.02,0.58,0.06,0.94c0,0.18,0,0.34,0.01,0.49
				c0.01,0.14,0.01,0.26,0.01,0.36c0,0.1,0,0.18,0.01,0.24c0.01,0.06,0.01,0.11,0.01,0.14s0,0.1,0,0.21c0,0.11,0.02,0.24,0.06,0.38
				c0.02,0.12,0.04,0.23,0.06,0.32s0.03,0.16,0.03,0.2c0,0.12-0.02,0.23-0.07,0.32c-0.05,0.09-0.1,0.18-0.16,0.26
				c-0.04,0.02-0.08,0.04-0.12,0.06c-0.04,0.02-0.09,0.04-0.15,0.06c-0.06,0.04-0.12,0.08-0.18,0.11c-0.06,0.03-0.13,0.07-0.21,0.11
				c-0.14,0.06-0.26,0.12-0.38,0.18c-0.12,0.06-0.23,0.1-0.32,0.12c-0.1,0.04-0.19,0.07-0.28,0.09c-0.09,0.02-0.16,0.03-0.22,0.03
				c-0.18,0-0.32-0.01-0.44-0.04c-0.12-0.03-0.21-0.08-0.26-0.14c-0.06-0.08-0.11-0.16-0.16-0.23c-0.05-0.07-0.09-0.14-0.13-0.2
				c-0.04-0.06-0.07-0.11-0.09-0.14c-0.02-0.03-0.03-0.07-0.03-0.11c-0.06-0.12-0.1-0.24-0.13-0.35s-0.04-0.24-0.04-0.38
				c0-0.34,0.01-0.86,0.04-1.56s0.08-1.57,0.16-2.62c0-0.28,0.01-0.55,0.03-0.8c0.02-0.25,0.03-0.48,0.03-0.68
				c0.02-0.22,0.03-0.41,0.04-0.58s0.01-0.31,0.01-0.46v-0.55v-0.76c0-0.5,0-0.97-0.01-1.41s-0.01-0.81-0.01-1.14
				c0-0.34,0-0.64,0-0.88c0-0.24,0-0.44,0-0.61c-0.02-0.28-0.04-0.55-0.07-0.79c-0.03-0.24-0.05-0.46-0.07-0.64
				c-0.04-0.06-0.06-0.12-0.07-0.17C21.01,12.21,21,12.16,21,12.1c0.02-0.12,0.04-0.23,0.06-0.33c0.02-0.1,0.03-0.19,0.03-0.27
				c0-0.3-0.01-0.68-0.03-1.12C21.04,9.92,21.02,9.42,21,8.85c-0.04-0.55-0.06-1-0.06-1.35s0-0.59,0-0.71c0-0.1,0-0.23,0.01-0.38
				s0.03-0.32,0.07-0.5c0.02-0.18,0.04-0.34,0.06-0.47c0.02-0.13,0.03-0.25,0.03-0.35c0-0.42-0.02-0.87-0.06-1.33
				S20.97,2.82,20.91,2.33z"/>
			<path class="st0" d="M29.37,2.27c0-0.08,0.02-0.18,0.06-0.3c0.04-0.12,0.09-0.26,0.15-0.42c0.02-0.06,0.04-0.13,0.06-0.2
				c0.02-0.07,0.04-0.13,0.06-0.17c0.02-0.06,0.04-0.12,0.06-0.17s0.04-0.1,0.06-0.14l0.59,0.15c0.12,0,0.23,0,0.35,0
				c0.12,0,0.23-0.01,0.32-0.03c0.16,0,0.3-0.01,0.43-0.03c0.13-0.02,0.24-0.03,0.34-0.03c0.08-0.02,0.15-0.04,0.21-0.04
				c0.06-0.01,0.11-0.02,0.15-0.02l0.59-0.12c0.02,0,0.05,0,0.1,0s0.12-0.02,0.22-0.06c0.02,0,0.05,0,0.09-0.02
				c0.04-0.01,0.07-0.01,0.09-0.01c0.04,0,0.07,0,0.09-0.02c0.02-0.01,0.05-0.01,0.09-0.01c0.06,0,0.12,0.01,0.19,0.03
				s0.16,0.04,0.28,0.06c0.08,0.04,0.15,0.06,0.22,0.06c0.07,0,0.12,0,0.16,0c0.12,0,0.26,0,0.43,0.02
				c0.17,0.01,0.36,0.01,0.57,0.01c0.21,0,0.45,0,0.71,0.02c0.25,0.01,0.54,0.01,0.85,0.01c0.59,0.04,1.05,0.06,1.4,0.06
				c0.34,0,0.54,0,0.6,0c0.18-0.02,0.33-0.04,0.47-0.06c0.14-0.02,0.27-0.04,0.41-0.06c0.12,0,0.21,0,0.28,0s0.12,0,0.16,0
				c0.04,0.04,0.09,0.07,0.16,0.08c0.07,0.01,0.16,0.01,0.28,0.01c0.04,0,0.11,0,0.22-0.01c0.11-0.01,0.25-0.04,0.43-0.08
				c0.06,0,0.12-0.01,0.19-0.03c0.07-0.02,0.13-0.03,0.19-0.03c0.06-0.02,0.11-0.04,0.16-0.05c0.05-0.01,0.1-0.01,0.16-0.01
				c0.45,0,0.95,0.01,1.51,0.03c0.56,0.02,1.19,0.04,1.89,0.06c0.67,0.04,1.19,0.06,1.59,0.06s0.64,0,0.73,0c0.31,0,0.61,0,0.9,0
				c0.28,0,0.53-0.01,0.75-0.03c0.41,0,0.78-0.01,1.12-0.03c0.33-0.02,0.62-0.03,0.85-0.03c0.24-0.02,0.42-0.04,0.56-0.05
				c0.14-0.01,0.24-0.01,0.29-0.01c0.1,0,0.19,0,0.28,0.01c0.09,0.01,0.17,0.02,0.25,0.02c0.06,0,0.12,0,0.18,0s0.12,0,0.18,0
				c0.04,0.02,0.1,0.04,0.18,0.04c0.08,0.01,0.18,0.03,0.29,0.05c0.12,0.02,0.25,0.04,0.41,0.06c0.16,0.02,0.32,0.04,0.5,0.06
				c0.06,0.22,0.1,0.43,0.13,0.64s0.04,0.39,0.04,0.58c0,0.12-0.01,0.23-0.03,0.33c-0.02,0.1-0.04,0.19-0.06,0.27
				c-0.04,0.12-0.07,0.22-0.1,0.29c-0.03,0.07-0.07,0.14-0.13,0.2c-0.08,0.04-0.15,0.07-0.21,0.08c-0.06,0.01-0.12,0.03-0.18,0.05
				c-0.04,0.02-0.07,0.03-0.1,0.03c-0.03,0-0.05,0-0.07,0c-0.06,0.02-0.12,0.03-0.18,0.03s-0.12,0-0.18,0c-0.12,0-0.25,0-0.4-0.02
				c-0.15-0.01-0.32-0.04-0.51-0.08c-0.24-0.02-0.43-0.04-0.57-0.06c-0.15-0.02-0.26-0.03-0.34-0.03c-0.06,0-0.11,0.01-0.15,0.02
				c-0.04,0.01-0.08,0.01-0.12,0.01c-0.06,0-0.11,0-0.15,0s-0.08,0-0.12,0c-0.12,0-0.22,0-0.31,0s-0.16,0-0.22,0
				c-0.1,0-0.18,0-0.25,0c-0.07,0-0.12-0.01-0.16-0.03l-0.62,0.15c-0.02,0-0.04,0-0.06,0c-0.02,0-0.04,0-0.06,0
				c-0.02,0-0.04,0-0.07-0.02c-0.03-0.01-0.05-0.03-0.07-0.05c-0.06,0-0.12-0.01-0.18-0.03c-0.06-0.02-0.11-0.04-0.15-0.06
				c-0.06,0.02-0.14,0.04-0.25,0.05c-0.11,0.01-0.23,0.01-0.37,0.01C48.1,3.29,47.97,3.3,47.85,3.3c-0.12,0-0.23,0-0.32,0
				l-1.65-0.09h-0.59c-0.41,0-0.75,0.01-1.01,0.03c-0.26,0.02-0.48,0.04-0.63,0.06c-0.2,0.04-0.34,0.08-0.44,0.12
				c-0.1,0.04-0.15,0.09-0.15,0.15c0.29,0.36,0.59,0.71,0.9,1.03c0.3,0.32,0.61,0.65,0.93,0.97c0.06,0.06,0.12,0.12,0.19,0.17
				c0.07,0.05,0.15,0.1,0.25,0.14c0.04,0.04,0.08,0.08,0.12,0.11s0.07,0.06,0.09,0.08c0.04,0.02,0.07,0.04,0.09,0.06
				c0.02,0.02,0.05,0.03,0.09,0.03c0.35,0.36,0.73,0.74,1.15,1.14c0.41,0.39,0.83,0.82,1.26,1.29c0.06,0.1,0.16,0.23,0.29,0.38
				c0.14,0.15,0.3,0.33,0.5,0.53c0.18,0.22,0.39,0.47,0.65,0.76c0.25,0.28,0.54,0.59,0.85,0.91c0.43,0.45,0.83,0.84,1.21,1.2
				c0.37,0.35,0.73,0.68,1.09,0.99c0.63,0.61,1.1,1.09,1.41,1.44s0.47,0.59,0.47,0.71c0,0.14-0.05,0.28-0.15,0.42
				s-0.23,0.29-0.41,0.45c-0.2,0.18-0.37,0.31-0.53,0.39c-0.16,0.08-0.29,0.12-0.41,0.12c-0.06,0-0.15,0-0.26,0
				s-0.25-0.02-0.38-0.06c-0.18-0.02-0.31-0.04-0.4-0.06s-0.2-0.1-0.32-0.24c-0.13-0.14-0.35-0.38-0.68-0.73s-0.66-0.72-1.01-1.12
				c-0.47-0.42-0.88-0.8-1.22-1.14c-0.34-0.33-0.63-0.59-0.87-0.77c-0.16-0.08-0.33-0.22-0.53-0.41c-0.2-0.19-0.41-0.44-0.65-0.74
				c-0.24-0.26-0.46-0.5-0.66-0.7c-0.21-0.2-0.38-0.37-0.51-0.52c-0.23-0.24-0.45-0.47-0.65-0.7c-0.2-0.22-0.38-0.42-0.56-0.61
				c-0.2-0.2-0.37-0.39-0.53-0.56c-0.16-0.17-0.29-0.33-0.41-0.47c-0.29-0.28-0.54-0.5-0.73-0.65c-0.2-0.15-0.35-0.23-0.47-0.23
				c-0.08,0-0.18,0.04-0.31,0.12c-0.13,0.08-0.28,0.18-0.46,0.3c-0.08,0.06-0.16,0.12-0.23,0.18c-0.08,0.06-0.15,0.11-0.21,0.15
				C40.96,8,40.88,8.06,40.82,8.11c-0.07,0.05-0.13,0.1-0.19,0.14c-0.08,0.12-0.22,0.29-0.41,0.5c-0.2,0.21-0.45,0.47-0.76,0.77
				c-0.18,0.16-0.33,0.31-0.46,0.46c-0.13,0.14-0.22,0.27-0.28,0.39c-0.2,0.3-0.43,0.62-0.71,0.94c-0.27,0.32-0.59,0.67-0.94,1.03
				c-0.27,0.28-0.54,0.55-0.79,0.8c-0.25,0.25-0.51,0.51-0.76,0.77c-0.27,0.24-0.54,0.49-0.79,0.74c-0.25,0.25-0.51,0.5-0.76,0.74
				c-0.14,0.14-0.27,0.28-0.41,0.41c-0.14,0.13-0.27,0.26-0.41,0.38c-0.14,0.12-0.27,0.24-0.4,0.36c-0.13,0.12-0.25,0.24-0.37,0.36
				c-0.12,0.04-0.22,0.08-0.31,0.12c-0.09,0.04-0.17,0.07-0.25,0.09c-0.08,0.04-0.15,0.07-0.21,0.09c-0.06,0.02-0.12,0.03-0.18,0.03
				c-0.12,0.04-0.23,0.07-0.34,0.08c-0.11,0.01-0.19,0.02-0.25,0.02c-0.12,0-0.24-0.03-0.35-0.09c-0.12-0.06-0.25-0.17-0.38-0.33
				c-0.16-0.12-0.29-0.24-0.4-0.35c-0.11-0.11-0.18-0.22-0.22-0.32c0.1-0.2,0.22-0.42,0.38-0.65c0.16-0.23,0.35-0.46,0.59-0.68
				c0.29-0.26,0.53-0.48,0.72-0.67c0.19-0.18,0.31-0.33,0.37-0.45c0.23-0.12,0.56-0.38,0.97-0.79s0.89-0.95,1.44-1.64
				c0.18-0.22,0.34-0.42,0.48-0.59c0.15-0.17,0.27-0.33,0.37-0.47c0.12-0.12,0.21-0.23,0.28-0.32s0.12-0.16,0.16-0.2
				c0.45-0.4,0.9-0.81,1.34-1.23c0.44-0.41,0.9-0.84,1.37-1.29c0.18-0.24,0.36-0.47,0.56-0.7c0.2-0.22,0.4-0.44,0.62-0.67
				c0.12-0.12,0.29-0.28,0.51-0.49c0.23-0.2,0.5-0.44,0.84-0.73l0.94-1.27l-0.15-0.21c-0.12,0.1-0.25,0.17-0.38,0.2
				c-0.14,0.03-0.27,0.05-0.41,0.05c-0.06,0-0.12,0-0.19-0.02c-0.07-0.01-0.14-0.04-0.22-0.08c-0.12-0.02-0.21-0.04-0.28-0.06
				c-0.07-0.02-0.13-0.03-0.19-0.03c-0.02,0-0.04,0.01-0.06,0.02c-0.02,0.01-0.05,0.03-0.09,0.05c-0.02,0-0.05,0.01-0.09,0.03
				c-0.04,0.02-0.07,0.03-0.09,0.03c-0.18,0.1-0.34,0.17-0.5,0.21c-0.16,0.04-0.29,0.06-0.41,0.06s-0.28,0-0.48-0.02
				c-0.21-0.01-0.46-0.04-0.75-0.11c-0.31-0.02-0.63-0.06-0.96-0.11c-0.32-0.05-0.64-0.11-0.95-0.17c-0.1,0.04-0.21,0.07-0.32,0.08
				c-0.12,0.01-0.25,0.02-0.41,0.02c-0.12,0-0.29,0-0.51,0c-0.23,0-0.48-0.02-0.78-0.06c-0.16,0-0.29,0-0.41-0.01
				c-0.12-0.01-0.23-0.02-0.32-0.02c-0.08,0-0.14,0-0.19-0.01c-0.05-0.01-0.11-0.02-0.18-0.02s-0.19,0.01-0.35,0.03
				c-0.17,0.02-0.34,0.04-0.51,0.06c-0.24,0.04-0.41,0.06-0.51,0.06s-0.21,0-0.31,0c-0.1,0-0.21-0.02-0.34-0.06
				c-0.13-0.04-0.22-0.12-0.28-0.24c-0.06-0.08-0.11-0.16-0.15-0.23c-0.04-0.07-0.07-0.15-0.09-0.23c-0.04-0.06-0.07-0.12-0.1-0.18
				S29.39,2.33,29.37,2.27z M30.14,19.71c0.08-0.14,0.14-0.27,0.19-0.39c0.05-0.12,0.07-0.23,0.07-0.33
				c0.14,0.06,0.26,0.1,0.38,0.12c0.12,0.02,0.21,0.03,0.26,0.03c0.2,0,0.45,0,0.76-0.01c0.31-0.01,0.68-0.04,1.09-0.08
				c0.2,0,0.38-0.01,0.54-0.03c0.17-0.02,0.32-0.03,0.46-0.03c0.12-0.02,0.22-0.04,0.32-0.05c0.1-0.01,0.18-0.01,0.23-0.01
				c0.04,0,0.09,0,0.16,0c0.07,0,0.15-0.02,0.25-0.06c0.08-0.02,0.15-0.04,0.21-0.06c0.06-0.02,0.11-0.03,0.15-0.03l0.18,0.21
				c0.02,0.04,0.05,0.06,0.1,0.06s0.1,0,0.16,0l1.23,0.06c0.14,0,0.32,0,0.56-0.01c0.23-0.01,0.52-0.04,0.85-0.08
				c0.33-0.02,0.62-0.04,0.87-0.06s0.46-0.03,0.66-0.03c0.2,0,0.37,0.01,0.53,0.03c0.16,0.02,0.28,0.03,0.38,0.03
				c0.06,0,0.12,0,0.18-0.02c0.06-0.01,0.12-0.02,0.18-0.04s0.12-0.04,0.19-0.05c0.07-0.01,0.13-0.02,0.19-0.04
				c0.04,0,0.08,0,0.13-0.02c0.05-0.01,0.09-0.01,0.13-0.01s0.08,0,0.12-0.02c0.04-0.01,0.08-0.01,0.12-0.01
				c0.04,0,0.1,0.01,0.18,0.03c0.08,0.02,0.18,0.04,0.29,0.06c0.08,0.04,0.15,0.06,0.22,0.06c0.07,0,0.12,0,0.16,0l2.06-0.09l3,0.09
				c0.25,0,0.5,0,0.75,0c0.24,0,0.46-0.01,0.63-0.03c0.35,0,0.67-0.01,0.94-0.03c0.27-0.02,0.51-0.03,0.71-0.03
				c0.18-0.02,0.32-0.04,0.44-0.05c0.12-0.01,0.2-0.01,0.24-0.01c0.2,0,0.4,0.01,0.62,0.03c0.22,0.02,0.43,0.04,0.65,0.06
				c0.2,0.04,0.39,0.08,0.59,0.11c0.2,0.03,0.38,0.07,0.56,0.11c0.06,0.18,0.11,0.38,0.15,0.59c0.04,0.21,0.06,0.42,0.06,0.62
				c0,0.12-0.01,0.23-0.03,0.32c-0.02,0.09-0.03,0.18-0.03,0.26c-0.04,0.12-0.08,0.22-0.12,0.3s-0.09,0.15-0.15,0.21l-0.79,0.18
				c-0.06,0-0.13,0-0.21-0.01c-0.08-0.01-0.18-0.04-0.29-0.08c-0.12-0.02-0.22-0.04-0.32-0.06c-0.1-0.02-0.17-0.03-0.21-0.03
				l-0.91,0.06h-3.2c-0.08,0-0.15,0-0.22-0.01s-0.12-0.02-0.16-0.02c-0.06,0-0.11,0-0.15-0.01c-0.04-0.01-0.07-0.02-0.09-0.02
				s-0.04,0-0.07,0.02c-0.03,0.01-0.05,0.01-0.07,0.01c-0.04,0-0.08,0.01-0.12,0.02s-0.08,0.01-0.12,0.01s-0.08,0-0.12,0
				c-0.04,0-0.08,0-0.12,0c-0.06,0-0.11,0-0.16-0.01s-0.1-0.02-0.16-0.02c-0.12,0-0.24,0-0.37-0.01c-0.13-0.01-0.23-0.03-0.31-0.05
				c-0.12,0-0.23,0-0.34,0c-0.11,0-0.2,0-0.28,0c-0.06,0-0.11,0-0.16,0c-0.05,0-0.09-0.01-0.13-0.03c-0.06,0-0.11-0.01-0.16-0.03
				c-0.05-0.02-0.1-0.04-0.16-0.06c-0.12,0.02-0.21,0.06-0.29,0.11c-0.08,0.05-0.15,0.12-0.21,0.2c-0.18,0-0.38,0-0.62,0
				c-0.23,0-0.5-0.02-0.79-0.06c-0.31-0.02-0.55-0.04-0.72-0.06c-0.17-0.02-0.28-0.03-0.34-0.03c-0.2,0-0.4,0.01-0.62,0.03
				c-0.22,0.02-0.43,0.04-0.65,0.06c-0.24,0.04-0.44,0.08-0.62,0.11c-0.18,0.03-0.31,0.08-0.41,0.14l-0.12,0.03
				c-0.12,0-0.27,0-0.47,0c-0.2,0-0.41-0.02-0.65-0.06c-0.14,0-0.26,0-0.37-0.02c-0.11-0.01-0.21-0.01-0.31-0.01s-0.18,0-0.25-0.02
				c-0.07-0.01-0.13-0.02-0.19-0.02c-0.08,0-0.16,0-0.25-0.01c-0.09-0.01-0.18-0.05-0.28-0.11c-0.06,0-0.11-0.01-0.16-0.03
				c-0.05-0.02-0.1-0.03-0.16-0.03c-0.04-0.02-0.08-0.04-0.12-0.04c-0.04-0.01-0.07-0.02-0.09-0.02c-0.1,0-0.22,0.01-0.37,0.03
				c-0.15,0.02-0.31,0.04-0.48,0.06c-0.24,0.04-0.41,0.06-0.53,0.06c-0.12,0-0.21,0-0.26,0l-1.7,0.09c-0.18,0-0.36,0-0.54,0
				c-0.19,0-0.38,0-0.57,0c-0.22,0-0.39-0.02-0.53-0.06c-0.14-0.04-0.24-0.09-0.29-0.15s-0.11-0.16-0.15-0.29
				c-0.04-0.13-0.06-0.32-0.06-0.56c-0.02-0.2-0.04-0.37-0.07-0.52C30.21,19.9,30.18,19.79,30.14,19.71z M39.92,24.4
				c0-0.28,0.07-0.53,0.22-0.74c0.15-0.21,0.38-0.38,0.69-0.5c0.31-0.12,0.63-0.22,0.94-0.29c0.31-0.07,0.64-0.11,0.97-0.11
				c0.2,0,0.39,0.06,0.59,0.17c0.2,0.11,0.38,0.26,0.56,0.44c0.16,0.22,0.28,0.44,0.37,0.65c0.09,0.21,0.13,0.42,0.13,0.62
				c0,0.38-0.04,0.73-0.13,1.03s-0.22,0.58-0.4,0.82c-0.18,0.24-0.4,0.42-0.66,0.53s-0.57,0.17-0.93,0.17
				c-0.51,0-0.92-0.05-1.25-0.15c-0.32-0.1-0.55-0.25-0.69-0.46c-0.16-0.2-0.26-0.49-0.32-0.86C39.95,25.35,39.92,24.91,39.92,24.4z
				"/>
		</g>
		<g>
			<path class="st1" d="M73.46,22.81c0,0.12-0.03,0.23-0.09,0.32c-0.06,0.09-0.15,0.17-0.26,0.23c-0.14,0.06-0.27,0.11-0.41,0.14
				c-0.14,0.03-0.27,0.04-0.41,0.04c-0.04,0-0.08,0-0.12,0s-0.08-0.01-0.12-0.03c-0.04,0-0.09,0-0.15-0.01
				c-0.06-0.01-0.12-0.02-0.18-0.02c-0.12,0-0.22,0-0.29-0.02c-0.08-0.01-0.13-0.01-0.15-0.01c-0.29,0-0.68,0.01-1.15,0.03
				c-0.47,0.02-1,0.06-1.59,0.12c-0.31,0.02-0.61,0.04-0.88,0.06c-0.27,0.02-0.53,0.03-0.76,0.03c-0.24,0.02-0.45,0.03-0.63,0.03
				c-0.19,0-0.35,0-0.48,0c-0.53,0-0.97-0.01-1.34-0.04s-0.64-0.08-0.84-0.14c-0.43-0.12-0.76-0.31-1-0.56
				c-0.23-0.25-0.36-0.57-0.38-0.96c-0.06-0.24-0.1-0.5-0.12-0.77c-0.02-0.27-0.03-0.56-0.03-0.86c-0.02-0.28-0.03-0.61-0.03-0.97
				c0-0.36,0-0.76,0-1.18c0-0.26,0-0.53,0-0.79s0-0.54,0-0.82c0-0.24,0-0.5,0-0.77s0.01-0.54,0.03-0.8c0-0.2,0-0.45,0-0.74
				s0.02-0.62,0.06-0.99c0.02-0.36,0.04-0.65,0.06-0.86c0.02-0.21,0.03-0.36,0.03-0.44c0-0.18-0.01-0.4-0.03-0.67
				c-0.02-0.26-0.04-0.58-0.06-0.94c-0.04-0.32-0.06-0.59-0.06-0.79s0-0.36,0-0.49c0-0.3-0.07-0.55-0.21-0.74
				c-0.14-0.19-0.32-0.34-0.56-0.44c-0.12,0.06-0.22,0.1-0.31,0.12c-0.09,0.02-0.14,0.03-0.16,0.03c-0.06,0-0.12,0-0.19,0
				s-0.15,0-0.25,0c-0.12,0-0.22-0.04-0.31-0.12c-0.09-0.08-0.16-0.2-0.22-0.36c-0.06-0.14-0.1-0.28-0.12-0.42s-0.03-0.27-0.03-0.39
				c0-0.36,0.04-0.67,0.13-0.91s0.22-0.43,0.4-0.58c0.18-0.12,0.4-0.21,0.68-0.27s0.59-0.09,0.94-0.09c0.04,0,0.08,0,0.13,0.01
				c0.05,0.01,0.1,0.02,0.16,0.02c0.04,0,0.08,0,0.13,0c0.05,0,0.1,0,0.16,0c0.08,0,0.16,0,0.25,0s0.18,0,0.28,0
				c0.02,0,0.05,0,0.1,0.01c0.05,0.01,0.1,0.02,0.16,0.02s0.12,0,0.19,0.01c0.07,0.01,0.14,0.02,0.22,0.02
				c0.14,0.04,0.26,0.06,0.37,0.06s0.22,0,0.34,0c0.12,0,0.25,0.01,0.41,0.03c0.16,0.02,0.34,0.04,0.56,0.06
				c0.21,0.04,0.38,0.06,0.48,0.06s0.18,0,0.22,0c0.16-0.04,0.31-0.08,0.46-0.11c0.15-0.03,0.29-0.04,0.43-0.04
				c0.08,0,0.17,0.01,0.26,0.03c0.1,0.02,0.2,0.03,0.29,0.03c0.29,0.08,0.52,0.14,0.69,0.17c0.17,0.03,0.27,0.04,0.31,0.04
				c0.12,0,0.27,0,0.47-0.01c0.2-0.01,0.43-0.04,0.7-0.08c0.12,0,0.23-0.01,0.32-0.03c0.1-0.02,0.2-0.03,0.29-0.03
				c0.08-0.02,0.15-0.04,0.22-0.04c0.07-0.01,0.13-0.02,0.19-0.02s0.18,0.01,0.35,0.03c0.18,0.02,0.41,0.04,0.71,0.06
				c0.29,0.04,0.52,0.08,0.69,0.11c0.17,0.03,0.28,0.06,0.34,0.08c0.04,0.06,0.08,0.12,0.13,0.17c0.05,0.05,0.09,0.1,0.13,0.14
				c0.04,0.04,0.07,0.08,0.1,0.11s0.06,0.06,0.1,0.08c0.04,0.06,0.07,0.14,0.1,0.23s0.04,0.18,0.04,0.26c0,0.12-0.01,0.24-0.03,0.36
				s-0.03,0.21-0.03,0.27c-0.02,0.06-0.03,0.11-0.04,0.15s-0.01,0.08-0.01,0.12c0,0.04,0,0.08-0.01,0.12
				c-0.01,0.04-0.01,0.08-0.01,0.12c-0.14,0.14-0.29,0.24-0.46,0.3c-0.17,0.06-0.35,0.09-0.54,0.09l-4.11-0.09
				c-0.49,0-0.96,0.05-1.42,0.15c-0.46,0.1-0.91,0.22-1.34,0.36c-0.02,0.04-0.03,0.08-0.04,0.12c-0.01,0.04-0.03,0.09-0.04,0.15
				c-0.02,0.08-0.04,0.17-0.04,0.26C65.24,9,65.24,9.1,65.24,9.2c-0.04,0.24-0.06,0.44-0.07,0.59s-0.01,0.26-0.01,0.32v0.82
				c0,0.3,0,0.58,0,0.82s0.02,0.46,0.06,0.64c0.02,0.18,0.06,0.36,0.13,0.53c0.07,0.17,0.17,0.33,0.31,0.47c0.18,0,0.35,0,0.51,0
				c0.17,0,0.33-0.02,0.48-0.06c0.16,0,0.35-0.03,0.59-0.08c0.24-0.05,0.53-0.12,0.88-0.2c0,0.04,0.03,0.07,0.09,0.08
				c0.06,0.01,0.15,0.02,0.26,0.02c0.08,0,0.19,0,0.32,0s0.29-0.02,0.47-0.06c0.18-0.02,0.32-0.04,0.43-0.06
				c0.11-0.02,0.19-0.03,0.25-0.03c0.12,0,0.25,0,0.4,0c0.15,0,0.31,0,0.49,0c0.14,0,0.28,0,0.43,0c0.15,0,0.31-0.01,0.48-0.03
				c0.08,0,0.16,0,0.25,0.01c0.09,0.01,0.16,0.02,0.22,0.02c0.08,0,0.14,0,0.19,0s0.1,0,0.16,0c0.08,0.04,0.16,0.08,0.25,0.11
				s0.16,0.07,0.22,0.11c0.08,0.02,0.15,0.05,0.21,0.08s0.12,0.04,0.18,0.04l0.03,0.97c0,0.2-0.01,0.38-0.03,0.52
				c-0.02,0.14-0.03,0.25-0.03,0.33c-0.02,0.1-0.05,0.2-0.09,0.3c-0.04,0.1-0.09,0.19-0.15,0.27c-0.1,0.04-0.19,0.07-0.26,0.08
				c-0.08,0.01-0.16,0.03-0.24,0.05c-0.08,0.02-0.16,0.04-0.23,0.04c-0.08,0.01-0.16,0.02-0.24,0.02c-0.18,0.04-0.34,0.06-0.48,0.06
				s-0.26,0-0.34,0s-0.16,0-0.25,0c-0.09,0-0.19-0.02-0.31-0.06c-0.08,0-0.14,0-0.19-0.02c-0.05-0.01-0.08-0.03-0.1-0.04
				c-0.04,0-0.07,0-0.09-0.02c-0.02-0.01-0.04-0.01-0.06-0.01s-0.05,0-0.09,0.01c-0.04,0.01-0.08,0.03-0.12,0.05
				c-0.04,0-0.08,0.01-0.13,0.03s-0.09,0.03-0.13,0.03c-0.12,0.06-0.22,0.1-0.31,0.11c-0.09,0.01-0.16,0.02-0.22,0.02l-2.12-0.09
				c-0.08,0-0.15,0-0.22,0.01c-0.07,0.01-0.13,0.02-0.19,0.02s-0.12,0-0.18,0s-0.11,0-0.15,0c-0.06,0-0.13,0-0.21,0.01
				c-0.08,0.01-0.17,0.03-0.26,0.05c-0.1,0-0.22,0.01-0.35,0.03c-0.14,0.02-0.27,0.03-0.41,0.03l0.12,0.64
				c-0.06,0.14-0.1,0.3-0.12,0.48c-0.02,0.18-0.03,0.36-0.03,0.55c0,0.12,0,0.23,0,0.33c0,0.1,0,0.19,0,0.27c0,0.1,0,0.18,0.01,0.24
				c0.01,0.06,0.01,0.11,0.01,0.15c0,0.22,0,0.41,0,0.58c0,0.16,0.01,0.29,0.03,0.39c0,0.12,0.02,0.27,0.07,0.46
				c0.05,0.18,0.11,0.39,0.19,0.64l0.5-0.06l0.23,0.24c0,0.02,0.02,0.04,0.06,0.04c0.04,0.01,0.09,0.02,0.15,0.02
				c0.18,0,0.35,0,0.51,0s0.33-0.02,0.49-0.06c0.25-0.02,0.48-0.05,0.69-0.08c0.21-0.03,0.38-0.06,0.51-0.08
				c0.14-0.02,0.25-0.04,0.34-0.06c0.09-0.02,0.15-0.03,0.19-0.03c0.06,0,0.12,0.01,0.19,0.02c0.07,0.01,0.15,0.01,0.25,0.01
				c0.1,0,0.21,0.01,0.32,0.02c0.12,0.01,0.25,0.01,0.38,0.01c0.27,0.04,0.49,0.06,0.63,0.06s0.24,0,0.28,0
				c0.06,0,0.12,0.01,0.19,0.02c0.07,0.01,0.14,0.02,0.22,0.02c0.08,0.02,0.16,0.03,0.24,0.03c0.08,0,0.16,0,0.23,0
				c0.14,0,0.27,0.01,0.41,0.03c0.14,0.02,0.26,0.03,0.38,0.03c0.12,0.08,0.21,0.18,0.26,0.29s0.11,0.24,0.15,0.38
				c0.02,0.16,0.04,0.34,0.06,0.53C73.45,22.41,73.46,22.61,73.46,22.81z M80.04,26.81c-0.08,0.02-0.19,0.06-0.34,0.12
				c-0.15,0.06-0.33,0.14-0.54,0.24c-0.12,0.06-0.22,0.11-0.31,0.15s-0.17,0.07-0.25,0.09c-0.08,0.04-0.15,0.07-0.22,0.08
				c-0.07,0.01-0.12,0.02-0.16,0.02c-0.18,0-0.32-0.02-0.44-0.05c-0.12-0.03-0.22-0.08-0.29-0.14c-0.06-0.06-0.11-0.12-0.16-0.18
				s-0.09-0.12-0.13-0.18c-0.04-0.04-0.07-0.08-0.09-0.12c-0.02-0.04-0.03-0.08-0.03-0.12v-1c0-0.26,0-0.61,0-1.05
				s0.02-0.96,0.06-1.56c0-0.3,0-0.57,0.01-0.79c0.01-0.22,0.01-0.41,0.01-0.58c0-0.14,0-0.25,0.01-0.33
				c0.01-0.08,0.01-0.13,0.01-0.15c0-0.14-0.01-0.33-0.04-0.58c-0.03-0.24-0.07-0.54-0.13-0.88c-0.06-0.32-0.1-0.59-0.12-0.8
				c-0.02-0.21-0.03-0.38-0.03-0.5s0.01-0.29,0.03-0.5s0.06-0.46,0.12-0.74c0.04-0.28,0.07-0.53,0.1-0.73
				c0.03-0.2,0.04-0.36,0.04-0.49c0-0.06-0.03-0.12-0.07-0.17c-0.05-0.05-0.1-0.11-0.16-0.17c-0.08,0.06-0.16,0.1-0.25,0.11
				c-0.09,0.01-0.19,0.02-0.31,0.02c-0.18,0-0.34,0-0.49,0c-0.15,0-0.28-0.02-0.4-0.06c-0.06,0-0.12,0-0.18-0.01
				c-0.06-0.01-0.11-0.03-0.15-0.05c-0.06,0-0.11,0-0.15-0.01c-0.04-0.01-0.07-0.03-0.09-0.05c-0.27-0.16-0.5-0.32-0.66-0.47
				c-0.17-0.15-0.28-0.31-0.34-0.47c-0.08-0.14-0.13-0.33-0.16-0.58c-0.03-0.24-0.04-0.54-0.04-0.91c0-0.4,0.06-0.73,0.18-0.99
				c0.12-0.25,0.32-0.44,0.62-0.56c0.25-0.04,0.52-0.09,0.79-0.15c0.27-0.06,0.56-0.12,0.85-0.18l0.15-0.03
				c0.02,0,0.06,0.01,0.12,0.03c0.06,0.02,0.13,0.04,0.21,0.06c0.06,0.04,0.12,0.06,0.18,0.06s0.1,0,0.12,0l0.15-0.03l0.06-1.39
				c0-0.1-0.01-0.21-0.01-0.33c-0.01-0.12-0.03-0.26-0.04-0.42c0-0.14-0.01-0.3-0.03-0.47c-0.02-0.17-0.03-0.35-0.03-0.53
				c-0.04-0.36-0.06-0.67-0.07-0.91s-0.01-0.42-0.01-0.55c0-0.1,0-0.23,0.01-0.39s0.04-0.35,0.1-0.58c0-0.1,0.01-0.2,0.03-0.29
				s0.03-0.19,0.03-0.29c0.02-0.08,0.03-0.16,0.04-0.24c0.01-0.08,0.01-0.15,0.01-0.21c0-0.1-0.01-0.22-0.03-0.36
				c-0.02-0.14-0.04-0.3-0.06-0.49C77,3.62,76.94,3.32,76.92,3.06s-0.04-0.44-0.04-0.56l0.21-0.3l-0.03-0.27
				c0-0.24,0.02-0.46,0.06-0.64c0.04-0.18,0.12-0.35,0.23-0.52c0.14-0.04,0.29-0.08,0.47-0.11c0.18-0.03,0.38-0.04,0.62-0.04
				c0.21,0,0.42,0.02,0.62,0.06c0.2,0.04,0.39,0.09,0.59,0.15c0.04,0.49,0.08,0.96,0.13,1.41c0.05,0.46,0.1,0.92,0.16,1.38
				l-0.09,1.94c0,0.16,0.01,0.43,0.03,0.82s0.06,0.89,0.12,1.52c0,0.14,0,0.28,0.01,0.41s0.01,0.26,0.01,0.38
				c0,0.14,0,0.27,0.01,0.39c0.01,0.12,0.01,0.24,0.01,0.36c0,0.22-0.01,0.48-0.03,0.79c-0.02,0.3-0.04,0.66-0.06,1.06
				c-0.04,0.42-0.06,0.79-0.07,1.11c-0.01,0.31-0.01,0.56-0.01,0.74c0,0.24,0,0.52,0.01,0.82s0.03,0.67,0.07,1.09
				c0.02,0.45,0.04,0.82,0.06,1.14s0.03,0.56,0.03,0.74c0,0.12-0.01,0.24-0.03,0.35c-0.02,0.11-0.03,0.23-0.03,0.35
				c-0.02,0.14-0.03,0.28-0.04,0.42s-0.01,0.29-0.01,0.45c0,0.06,0.01,0.18,0.03,0.36c0.02,0.18,0.06,0.42,0.12,0.73
				c0,0.08,0,0.15,0.01,0.21c0.01,0.06,0.01,0.12,0.01,0.18s0,0.12,0.01,0.18c0.01,0.06,0.01,0.11,0.01,0.15
				c0,0.04-0.01,0.09-0.01,0.15c-0.01,0.06-0.03,0.13-0.04,0.21c0,0.08-0.01,0.17-0.03,0.26s-0.03,0.2-0.03,0.32
				c-0.04,0.24-0.06,0.46-0.07,0.64s-0.01,0.33-0.01,0.45c0,0.18,0,0.39,0.01,0.64c0.01,0.24,0.03,0.52,0.07,0.82
				c0,0.16,0.01,0.31,0.03,0.44c0.02,0.13,0.03,0.25,0.03,0.35c0.02,0.1,0.03,0.19,0.04,0.26c0.01,0.07,0.01,0.13,0.01,0.17
				c0,0.06,0,0.14,0,0.23s0.02,0.2,0.06,0.32c0.02,0.12,0.04,0.22,0.06,0.29c0.02,0.07,0.03,0.13,0.03,0.17
				c0,0.18-0.02,0.34-0.07,0.47C80.16,26.63,80.1,26.73,80.04,26.81z M84.04,26.15c0,0.12-0.02,0.23-0.06,0.33
				c-0.04,0.1-0.09,0.18-0.15,0.24c-0.1,0.06-0.19,0.11-0.28,0.15c-0.09,0.04-0.17,0.08-0.25,0.12c-0.06,0.02-0.12,0.04-0.19,0.08
				c-0.07,0.03-0.12,0.06-0.16,0.08c-0.22,0.1-0.4,0.18-0.56,0.23c-0.16,0.05-0.29,0.08-0.41,0.08c-0.18,0-0.32-0.01-0.44-0.04
				c-0.12-0.03-0.21-0.08-0.26-0.14s-0.11-0.12-0.15-0.18s-0.08-0.12-0.12-0.18c-0.02-0.04-0.04-0.09-0.07-0.14
				c-0.03-0.05-0.05-0.11-0.07-0.17c-0.06-0.1-0.09-0.21-0.1-0.33s-0.01-0.25-0.01-0.39c0-0.32,0-0.69,0.01-1.11
				s0.03-0.86,0.07-1.35c0.02-0.55,0.04-1.04,0.07-1.49s0.05-0.84,0.07-1.18c0-0.34,0.01-0.64,0.03-0.89s0.03-0.46,0.03-0.62v-1.42
				v-0.73v-0.73v-0.64v-0.54v-0.46v-0.42c0-0.48-0.01-0.88-0.04-1.2c-0.03-0.31-0.06-0.53-0.1-0.65c-0.04,0-0.06-0.02-0.07-0.05
				c-0.01-0.03-0.02-0.07-0.02-0.11c-0.02-0.02-0.03-0.05-0.03-0.08s0-0.07,0-0.11c0.02-0.1,0.04-0.2,0.07-0.3
				c0.03-0.1,0.04-0.19,0.04-0.27c0-0.16,0-0.32-0.01-0.49c-0.01-0.16-0.01-0.32-0.01-0.49c0-0.14,0-0.28,0-0.41
				c0-0.13,0-0.26,0-0.38c-0.06-0.91-0.09-1.61-0.1-2.09c-0.01-0.48-0.01-0.78-0.01-0.88c0-0.1,0-0.23,0.01-0.38s0.03-0.32,0.07-0.5
				c0.02-0.18,0.04-0.34,0.06-0.47c0.02-0.13,0.03-0.25,0.03-0.35c0-0.14-0.01-0.31-0.03-0.52c-0.02-0.2-0.04-0.44-0.06-0.73
				c-0.04-0.24-0.07-0.49-0.1-0.74s-0.05-0.51-0.07-0.77c0.04-0.06,0.07-0.16,0.1-0.3s0.06-0.33,0.1-0.58
				c0-0.22,0.04-0.41,0.12-0.56c0.08-0.15,0.18-0.26,0.29-0.32c0.23,0,0.46,0.01,0.66,0.03c0.21,0.02,0.4,0.03,0.57,0.03
				c0.16,0.02,0.31,0.04,0.47,0.08c0.16,0.03,0.31,0.07,0.47,0.11c0.06,0.46,0.11,0.94,0.16,1.41c0.05,0.48,0.09,0.96,0.13,1.44
				c0.02,0.53,0.04,1.06,0.07,1.61s0.04,1.09,0.04,1.64c0,0.22,0,0.47-0.01,0.74c-0.01,0.27-0.01,0.58-0.01,0.92
				s-0.01,0.72-0.01,1.14c-0.01,0.41-0.01,0.86-0.01,1.35c-0.04,0.97-0.06,1.71-0.06,2.23c0,0.51,0,0.79,0,0.83v4.4
				c0,0.12,0,0.26,0.01,0.42s0.03,0.34,0.07,0.55c0.02,0.24,0.04,0.44,0.06,0.59s0.03,0.27,0.03,0.35c0,0.12-0.01,0.26-0.03,0.42
				c-0.02,0.16-0.04,0.33-0.06,0.52c-0.04,0.22-0.06,0.4-0.06,0.55s0,0.24,0,0.3c0,0.2,0,0.43,0,0.68s0.02,0.55,0.06,0.89
				c0.02,0.3,0.04,0.56,0.06,0.76s0.03,0.33,0.03,0.39s0,0.14,0,0.24c0,0.1,0.02,0.21,0.06,0.33c0,0.06,0,0.12,0.01,0.18
				s0.01,0.12,0.01,0.18c0,0.04,0,0.09,0.01,0.14C84.03,26.09,84.04,26.13,84.04,26.15z"/>
			<path class="st1" d="M103.92,21.45c0,0.18-0.01,0.35-0.04,0.5c-0.03,0.15-0.07,0.31-0.13,0.47c-0.02,0.04-0.04,0.09-0.07,0.14
				c-0.03,0.05-0.05,0.11-0.07,0.17c-0.04,0.08-0.08,0.16-0.12,0.24c-0.04,0.08-0.09,0.17-0.15,0.27c-0.1,0-0.28,0.01-0.54,0.03
				c-0.26,0.02-0.6,0.06-1.01,0.12c-0.1,0.02-0.19,0.04-0.28,0.04c-0.09,0.01-0.17,0.02-0.25,0.02c-0.08,0-0.16,0-0.24,0
				s-0.15,0-0.21,0c-0.08,0-0.19,0-0.34-0.02c-0.15-0.01-0.32-0.03-0.51-0.08c-0.22-0.04-0.41-0.07-0.57-0.09
				c-0.17-0.02-0.31-0.03-0.43-0.03l-2.85,0.06c-0.1,0-0.2,0.01-0.29,0.04c-0.1,0.03-0.2,0.08-0.29,0.14
				c-0.12,0.06-0.21,0.11-0.28,0.14s-0.12,0.04-0.16,0.04c-0.16,0-0.36-0.01-0.62-0.04s-0.56-0.09-0.91-0.17
				c-0.37-0.06-0.69-0.11-0.96-0.14c-0.26-0.03-0.48-0.04-0.66-0.04l-0.91,0.03c-0.14,0-0.27,0-0.4-0.02
				c-0.13-0.01-0.25-0.04-0.37-0.08c-0.12-0.02-0.25-0.06-0.4-0.11c-0.15-0.05-0.31-0.13-0.48-0.23c-0.18-0.16-0.3-0.34-0.37-0.53
				c-0.07-0.19-0.1-0.4-0.1-0.62c0-0.36,0-0.79,0-1.27s0.02-1.03,0.06-1.64c0.02-0.59,0.04-1.05,0.06-1.38
				c0.02-0.33,0.03-0.55,0.03-0.65c0-0.2-0.01-0.41-0.04-0.62c-0.03-0.21-0.06-0.42-0.1-0.62c-0.02-0.08-0.03-0.17-0.04-0.26
				s-0.01-0.19-0.01-0.29c0-0.06,0-0.13,0-0.21c0-0.08,0-0.15,0-0.21c0-0.2,0-0.46,0.01-0.79s0.03-0.71,0.07-1.15
				c0-0.2,0.01-0.39,0.03-0.58C88.99,11.87,89,11.7,89,11.54c0.02-0.14,0.03-0.27,0.04-0.38c0.01-0.11,0.01-0.21,0.01-0.29
				c-0.02-0.06-0.04-0.12-0.06-0.18c-0.02-0.06-0.03-0.13-0.03-0.21c-0.02-0.06-0.04-0.13-0.06-0.2c-0.02-0.07-0.03-0.15-0.03-0.23
				s0-0.18,0-0.3s0.01-0.25,0.03-0.39c0-0.06,0-0.12,0-0.17c0-0.05,0-0.1,0-0.14c0-0.04,0-0.08,0.01-0.11s0.01-0.06,0.01-0.08
				c0-0.02,0-0.05-0.01-0.09c-0.01-0.04-0.01-0.07-0.01-0.09c0-0.04,0-0.07,0-0.09s0-0.05,0-0.09c0-0.02,0-0.06,0-0.12
				s0-0.12,0-0.18s0-0.13,0-0.21s0.01-0.17,0.03-0.27c0-0.1-0.01-0.19-0.03-0.26c-0.02-0.07-0.03-0.14-0.03-0.2V6.84l0.18-0.51
				c0-0.38,0.12-0.71,0.37-0.97c0.24-0.26,0.62-0.45,1.13-0.58c0.21-0.02,0.45-0.04,0.71-0.08c0.25-0.03,0.54-0.05,0.85-0.05h0.53
				c0.18,0,0.39,0.01,0.63,0.02s0.52,0.01,0.84,0.01s0.65,0.01,1.01,0.02c0.36,0.01,0.77,0.01,1.22,0.01c0.86,0.04,1.53,0.06,2,0.06
				c0.47,0,0.73,0,0.79,0c0.08,0,0.2,0.01,0.35,0.03c0.16,0.02,0.34,0.04,0.56,0.06c0.18,0.04,0.34,0.07,0.5,0.08
				c0.16,0.01,0.29,0.02,0.41,0.02l1.5-0.03c0.16,0,0.32,0.04,0.48,0.14c0.17,0.09,0.34,0.23,0.51,0.41
				c0.14,0.18,0.25,0.36,0.34,0.53c0.09,0.17,0.13,0.35,0.13,0.53s-0.01,0.38-0.03,0.61c-0.02,0.22-0.04,0.46-0.06,0.73
				c-0.04,0.3-0.06,0.54-0.06,0.7s0,0.26,0,0.3c0,0.3,0,0.63,0,0.97c0,0.34,0.02,0.73,0.06,1.15c0.02,0.42,0.04,0.77,0.06,1.05
				c0.02,0.27,0.03,0.44,0.03,0.5c0,0.12-0.01,0.27-0.03,0.44c-0.02,0.17-0.04,0.37-0.06,0.59c-0.04,0.24-0.06,0.45-0.07,0.62
				s-0.01,0.32-0.01,0.44l0.03,3.33c0,0.1,0,0.22,0,0.36s0.02,0.29,0.06,0.46c0.02,0.18,0.04,0.32,0.06,0.42
				c0.02,0.1,0.03,0.17,0.03,0.21V21.45z M100.75,16.6c0-0.08,0-0.2,0.01-0.35c0.01-0.15,0.03-0.35,0.07-0.59
				c0-0.08,0.01-0.17,0.03-0.26c0.02-0.09,0.03-0.17,0.03-0.23c0.02-0.06,0.03-0.12,0.04-0.17c0.01-0.05,0.01-0.1,0.01-0.14
				c0-0.06,0-0.13-0.01-0.21c-0.01-0.08-0.01-0.15-0.01-0.21c0-0.08,0-0.15,0-0.21s0-0.12,0-0.18c-0.06-0.4-0.09-0.72-0.1-0.96
				c-0.01-0.23-0.01-0.37-0.01-0.41c0-0.12,0-0.25,0-0.39s0.01-0.27,0.03-0.39c0-0.12,0.01-0.26,0.03-0.41s0.05-0.32,0.09-0.5
				l-0.06-0.27c-0.1-0.1-0.16-0.19-0.19-0.26c-0.03-0.07-0.04-0.13-0.04-0.17c0.06-0.14,0.11-0.27,0.16-0.38s0.07-0.21,0.07-0.29
				c0-0.04-0.01-0.09-0.01-0.14c-0.01-0.05-0.02-0.11-0.02-0.17c0-0.04,0-0.09,0-0.15c0-0.06,0-0.12,0-0.18
				c-0.02-0.04-0.03-0.1-0.04-0.17c-0.01-0.07-0.01-0.17-0.01-0.29c-0.02-0.1-0.03-0.22-0.04-0.35c-0.01-0.13-0.01-0.29-0.01-0.47
				c-0.08-0.06-0.16-0.12-0.25-0.17c-0.09-0.05-0.17-0.09-0.25-0.11c-0.06,0-0.11,0-0.16,0s-0.08,0-0.1,0c-0.04,0-0.07,0-0.1-0.01
				c-0.03-0.01-0.09-0.02-0.18-0.02c-0.09,0-0.22,0.01-0.41,0.03c-0.19,0.02-0.37,0.04-0.54,0.06c-0.1,0.02-0.2,0.04-0.29,0.06
				c-0.1,0.02-0.2,0.04-0.29,0.06c-0.1,0-0.2,0.01-0.29,0.03c-0.1,0.02-0.19,0.04-0.26,0.06c-0.1-0.04-0.19-0.08-0.28-0.11
				s-0.19-0.05-0.31-0.05c-0.14,0-0.28,0.01-0.44,0.02c-0.16,0.01-0.33,0.01-0.53,0.01c-0.2,0-0.4,0-0.62,0c-0.22,0-0.44,0-0.68,0
				c-0.53,0.02-0.98,0.03-1.35,0.03s-0.67,0-0.91,0c-0.04,0.16-0.07,0.3-0.09,0.42c-0.02,0.12-0.03,0.24-0.03,0.36
				c-0.02,0.12-0.04,0.23-0.06,0.32s-0.03,0.18-0.03,0.26c-0.04,0.2-0.06,0.39-0.06,0.56c0,0.17,0,0.34,0,0.5
				c0,0.06,0,0.13,0.01,0.21s0.04,0.16,0.1,0.24c0,0.06,0.01,0.12,0.03,0.17c0.02,0.05,0.03,0.1,0.03,0.14
				c0.02,0.04,0.03,0.08,0.04,0.11c0.01,0.03,0.01,0.06,0.01,0.08c0,0.02,0,0.04-0.01,0.06c-0.01,0.02-0.01,0.05-0.01,0.09
				c0,0.02,0,0.05-0.01,0.09c-0.01,0.04-0.01,0.08-0.01,0.12c-0.04,0.12-0.06,0.23-0.06,0.32c0,0.09,0,0.19,0,0.29
				c-0.04,0.06-0.07,0.11-0.09,0.15c-0.02,0.04-0.04,0.08-0.06,0.12c-0.02,0.04-0.04,0.08-0.06,0.11s-0.03,0.06-0.03,0.08
				c-0.04,0.06-0.06,0.13-0.06,0.21c0,0.08,0,0.15,0,0.21c0,0.63,0,1.32,0,2.08s0.01,1.58,0.03,2.47c0,0.89,0.01,1.58,0.04,2.08
				s0.06,0.78,0.1,0.86c0.06,0.12,0.13,0.21,0.22,0.27s0.19,0.09,0.31,0.09c0.12,0,0.23-0.01,0.34-0.03
				c0.11-0.02,0.2-0.03,0.28-0.03c0.06,0,0.15,0.01,0.28,0.03c0.13,0.02,0.28,0.04,0.46,0.06c0.18,0.04,0.33,0.07,0.46,0.08
				c0.13,0.01,0.24,0.01,0.34,0.01c0.06,0,0.16,0,0.29-0.01c0.14-0.01,0.3-0.04,0.5-0.08c0.18-0.02,0.33-0.04,0.47-0.06
				c0.14-0.02,0.26-0.03,0.38-0.03c0.14,0,0.32,0.01,0.56,0.03c0.24,0.02,0.5,0.04,0.79,0.06c0.29,0.04,0.55,0.07,0.78,0.08
				c0.22,0.01,0.42,0.01,0.57,0.01l1.06-0.06c0-0.02,0.02-0.06,0.07-0.12s0.11-0.13,0.19-0.21c0.06-0.06,0.11-0.14,0.16-0.23
				s0.07-0.2,0.07-0.32c0-0.08-0.01-0.19-0.03-0.32c-0.02-0.13-0.04-0.28-0.06-0.44c-0.04-0.14-0.06-0.25-0.06-0.33s0-0.14,0-0.18
				c0-0.06,0.01-0.15,0.03-0.27s0.06-0.25,0.12-0.39c0.04-0.12,0.07-0.23,0.1-0.32c0.03-0.09,0.04-0.17,0.04-0.23
				c-0.02-0.04-0.03-0.07-0.03-0.09c0-0.02-0.01-0.04-0.01-0.06c-0.01-0.02-0.01-0.05-0.01-0.09c-0.06-0.12-0.1-0.23-0.12-0.32
				C100.76,16.73,100.75,16.66,100.75,16.6z M108.65,27.3c-0.06,0.06-0.15,0.11-0.26,0.14c-0.12,0.03-0.25,0.04-0.41,0.04
				c-0.04,0-0.07,0-0.09,0s-0.05,0-0.09,0c-0.02,0-0.05,0-0.09-0.01c-0.04-0.01-0.08-0.03-0.12-0.05c-0.1-0.04-0.18-0.07-0.24-0.08
				c-0.06-0.01-0.1-0.02-0.12-0.02c-0.06-0.06-0.12-0.12-0.18-0.17c-0.06-0.05-0.1-0.1-0.12-0.14l-0.18,0.09
				c-0.16,0-0.28-0.02-0.38-0.06c-0.1-0.04-0.16-0.11-0.18-0.21c-0.06-0.08-0.09-0.19-0.1-0.33c-0.01-0.14-0.01-0.3-0.01-0.49
				c0-0.14-0.01-0.28-0.03-0.41c-0.02-0.13-0.03-0.26-0.03-0.38c-0.04-0.12-0.07-0.26-0.09-0.41c-0.02-0.15-0.03-0.32-0.03-0.5
				l0.03-4.91c0-1.13-0.01-2.19-0.03-3.18s-0.03-1.89-0.03-2.7c-0.02-0.79-0.04-1.68-0.06-2.67s-0.03-2.07-0.03-3.24
				c-0.02-1.15-0.03-2.13-0.03-2.94c0-0.81,0-1.46,0-1.94c0.06-0.08,0.11-0.2,0.15-0.36c0.04-0.16,0.07-0.36,0.09-0.61
				c0-0.24,0.02-0.44,0.06-0.61c0.04-0.16,0.1-0.29,0.18-0.39c0.06-0.02,0.14-0.05,0.24-0.08c0.1-0.03,0.21-0.04,0.35-0.04
				c0.27,0,0.53,0.03,0.76,0.08c0.23,0.05,0.47,0.11,0.71,0.17c0.2,0.08,0.35,0.19,0.47,0.33c0.12,0.14,0.18,0.31,0.18,0.51
				c0,0.41-0.01,0.87-0.03,1.39c-0.02,0.53-0.04,1.11-0.06,1.76c-0.04,0.67-0.06,1.2-0.06,1.59c0,0.39,0,0.65,0,0.77
				c0,0.18,0,0.41,0.01,0.7s0.04,0.61,0.1,0.97c0,0.2,0.01,0.39,0.03,0.56c0.02,0.17,0.03,0.33,0.03,0.47
				c0.02,0.16,0.03,0.3,0.04,0.42s0.01,0.23,0.01,0.33c0,0.12-0.01,0.24-0.03,0.35s-0.03,0.22-0.03,0.32
				c-0.08,0.41-0.13,0.71-0.16,0.91s-0.04,0.31-0.04,0.33l0.03,2.55c0,0.18,0,0.35,0,0.51c0,0.16,0.02,0.3,0.06,0.42
				c0.02,0.26,0.04,0.49,0.07,0.67s0.05,0.34,0.07,0.49c0,0.12,0.01,0.22,0.03,0.29c0.02,0.07,0.03,0.14,0.03,0.21
				c0,0.07-0.01,0.22-0.03,0.44s-0.04,0.47-0.06,0.76c-0.04,0.3-0.06,0.57-0.07,0.8c-0.01,0.23-0.01,0.42-0.01,0.56
				c0,0.22,0.01,0.54,0.04,0.97s0.08,0.96,0.16,1.61c0,0.2,0.01,0.38,0.03,0.55c0.02,0.16,0.03,0.3,0.03,0.42
				c0.02,0.14,0.03,0.26,0.04,0.36c0.01,0.1,0.01,0.18,0.01,0.24v0.42c0,0.24-0.01,0.47-0.04,0.7c-0.03,0.22-0.05,0.42-0.07,0.61
				c-0.04,0.16-0.09,0.33-0.16,0.51C108.86,26.91,108.77,27.1,108.65,27.3z M112.24,16.11c-0.35,0-0.66-0.03-0.92-0.09
				c-0.26-0.06-0.5-0.18-0.72-0.36c-0.27-0.16-0.48-0.36-0.6-0.61c-0.13-0.24-0.19-0.54-0.19-0.88c0-0.44,0.04-0.84,0.13-1.18
				s0.22-0.61,0.4-0.79c0.18-0.18,0.43-0.32,0.76-0.42c0.33-0.1,0.74-0.15,1.23-0.15c0.24,0,0.47,0.04,0.72,0.14
				c0.25,0.09,0.47,0.23,0.69,0.41c0.2,0.18,0.35,0.38,0.46,0.61c0.11,0.22,0.16,0.46,0.16,0.7c0,0.34-0.04,0.66-0.13,0.96
				c-0.09,0.29-0.22,0.56-0.4,0.8c-0.21,0.3-0.46,0.53-0.73,0.67S112.53,16.11,112.24,16.11z"/>
		</g>
		<g>
			<path class="st2" d="M133.56,14.25c0,0.3-0.03,0.6-0.07,0.89c-0.05,0.29-0.11,0.58-0.19,0.86c-0.1,0.3-0.21,0.61-0.34,0.92
				c-0.13,0.31-0.27,0.62-0.43,0.92c-0.04,0.12-0.07,0.24-0.1,0.35s-0.05,0.22-0.07,0.32l-0.21,0.18c-0.06,0.06-0.12,0.12-0.18,0.17
				c-0.06,0.05-0.12,0.11-0.18,0.17c-0.06,0.04-0.11,0.09-0.16,0.14c-0.05,0.05-0.09,0.1-0.13,0.14c-0.14,0.06-0.32,0.15-0.54,0.27
				c-0.23,0.12-0.5,0.27-0.81,0.46c-0.53,0.3-1,0.53-1.41,0.68c-0.41,0.15-0.76,0.23-1.06,0.23c-0.14,0-0.29,0-0.47-0.01
				c-0.18-0.01-0.37-0.05-0.59-0.11c-0.14,0-0.25-0.01-0.35-0.03c-0.1-0.02-0.2-0.03-0.29-0.03c-0.08-0.02-0.15-0.04-0.22-0.05
				c-0.07-0.01-0.13-0.01-0.19-0.01c-0.04,0-0.07-0.01-0.09-0.03s-0.04-0.05-0.06-0.09c-0.04,0-0.07-0.01-0.09-0.03
				c-0.02-0.02-0.04-0.05-0.06-0.09l-0.44,0.09c-0.12-0.06-0.25-0.12-0.4-0.17c-0.15-0.05-0.32-0.08-0.51-0.08
				c-0.29,0-0.61-0.11-0.94-0.33s-0.68-0.57-1.03-1.03c-0.31-0.36-0.58-0.73-0.81-1.11c-0.22-0.37-0.4-0.76-0.51-1.17
				c-0.04-0.06-0.07-0.16-0.1-0.29c-0.03-0.13-0.05-0.31-0.07-0.53c-0.04-0.08-0.07-0.16-0.09-0.24s-0.04-0.16-0.06-0.24
				c-0.02-0.08-0.04-0.15-0.06-0.21s-0.03-0.12-0.03-0.18c0.02-0.06,0.04-0.15,0.07-0.26c0.03-0.11,0.06-0.25,0.1-0.41
				c0.04-0.16,0.08-0.34,0.13-0.55c0.05-0.2,0.1-0.43,0.16-0.7c0.1-0.48,0.2-0.91,0.31-1.27c0.11-0.36,0.22-0.66,0.34-0.88
				c0.02-0.06,0.07-0.15,0.15-0.26s0.18-0.23,0.29-0.35c0.12-0.12,0.21-0.22,0.28-0.3c0.07-0.08,0.13-0.15,0.19-0.21
				c0.18-0.3,0.41-0.58,0.69-0.83c0.28-0.25,0.61-0.49,0.98-0.71c0.37-0.18,0.75-0.32,1.13-0.42c0.38-0.1,0.77-0.15,1.16-0.15h1.67
				c0.16,0.04,0.32,0.08,0.48,0.11c0.17,0.03,0.34,0.04,0.51,0.04c0.14,0.1,0.28,0.19,0.44,0.27c0.16,0.08,0.31,0.16,0.47,0.24
				c0.14,0.1,0.28,0.19,0.44,0.27c0.16,0.08,0.32,0.15,0.5,0.21c0.08,0.06,0.19,0.13,0.34,0.21c0.15,0.08,0.32,0.16,0.51,0.24
				c0.29,0.42,0.55,0.82,0.78,1.2c0.22,0.37,0.43,0.74,0.6,1.11c0.18,0.49,0.32,0.95,0.43,1.38S133.56,13.82,133.56,14.25z
				 M126.66,10.52l-0.32,0.03c-1,0.26-1.75,0.72-2.25,1.36c-0.5,0.65-0.75,1.49-0.75,2.52c0.02,0.06,0.04,0.21,0.06,0.46
				s0.04,0.55,0.06,0.91c0,0.4,0.07,0.73,0.21,0.97c0.14,0.24,0.33,0.41,0.59,0.49c0.18,0.14,0.37,0.27,0.57,0.39
				c0.21,0.12,0.43,0.24,0.66,0.36c0.1,0.06,0.26,0.1,0.48,0.11c0.23,0.01,0.51,0.01,0.87,0.01c0.51,0,0.98-0.08,1.42-0.23
				c0.44-0.15,0.87-0.41,1.28-0.77c0.39-0.3,0.69-0.67,0.9-1.09c0.21-0.42,0.31-0.9,0.31-1.42c0-0.5-0.11-1-0.32-1.47
				s-0.53-0.92-0.94-1.35c-0.43-0.4-0.88-0.72-1.35-0.94C127.66,10.63,127.17,10.52,126.66,10.52z M139.29,9.22
				c0,0.36-0.05,0.68-0.16,0.96c-0.11,0.27-0.26,0.52-0.46,0.74c-0.2,0.22-0.42,0.38-0.68,0.47c-0.25,0.09-0.54,0.14-0.85,0.14
				c-0.37,0-0.7-0.02-0.97-0.08c-0.27-0.05-0.5-0.14-0.68-0.26c-0.27-0.16-0.47-0.36-0.59-0.61c-0.12-0.24-0.18-0.55-0.18-0.91
				c0-0.46,0.04-0.86,0.13-1.2c0.09-0.33,0.23-0.59,0.43-0.77c0.18-0.18,0.43-0.32,0.75-0.41c0.32-0.09,0.74-0.14,1.25-0.14
				c0.29,0,0.56,0.05,0.81,0.15c0.25,0.1,0.46,0.24,0.63,0.42c0.18,0.2,0.31,0.43,0.41,0.68C139.24,8.67,139.29,8.93,139.29,9.22z
				 M139.29,18.83c0,0.34-0.05,0.66-0.16,0.94c-0.11,0.28-0.26,0.53-0.46,0.73c-0.2,0.22-0.42,0.38-0.68,0.47
				c-0.25,0.09-0.54,0.14-0.85,0.14c-0.37,0-0.7-0.03-0.97-0.09c-0.27-0.06-0.5-0.15-0.68-0.27c-0.27-0.14-0.47-0.34-0.59-0.59
				c-0.12-0.25-0.18-0.55-0.18-0.89c0-0.49,0.04-0.89,0.13-1.23c0.09-0.33,0.23-0.6,0.43-0.8c0.18-0.18,0.43-0.32,0.75-0.41
				c0.32-0.09,0.74-0.14,1.25-0.14c0.29,0,0.56,0.06,0.79,0.17c0.24,0.11,0.44,0.26,0.62,0.44c0.18,0.22,0.32,0.46,0.43,0.71
				C139.24,18.25,139.29,18.52,139.29,18.83z M142.32,27.62c-0.1,0.08-0.2,0.14-0.31,0.17c-0.11,0.03-0.22,0.05-0.34,0.05
				c-0.04,0-0.07,0-0.1,0s-0.06,0-0.1,0s-0.08-0.01-0.12-0.02c-0.04-0.01-0.08-0.03-0.12-0.05c-0.1-0.04-0.18-0.07-0.23-0.09
				s-0.1-0.04-0.13-0.08c-0.03-0.03-0.07-0.07-0.13-0.11c-0.06-0.04-0.11-0.08-0.15-0.12l-0.15,0.06c-0.14,0-0.25-0.02-0.32-0.06
				c-0.08-0.04-0.15-0.09-0.21-0.15s-0.1-0.16-0.12-0.3c-0.02-0.14-0.03-0.33-0.03-0.58c0-0.1-0.01-0.22-0.02-0.36
				s-0.02-0.3-0.04-0.49c0-0.18-0.01-0.37-0.03-0.58s-0.03-0.42-0.03-0.67c-0.06-0.46-0.09-0.88-0.1-1.24
				c-0.01-0.36-0.01-0.68-0.01-0.94l0.03-4.46V8.06c0-0.32-0.01-0.64-0.03-0.96s-0.03-0.61-0.03-0.89
				c-0.08-0.97-0.13-1.72-0.16-2.24s-0.04-0.83-0.04-0.91c0.06-0.06,0.11-0.17,0.16-0.33c0.05-0.16,0.09-0.36,0.13-0.61
				c0.02-0.24,0.05-0.45,0.1-0.62s0.11-0.31,0.19-0.41c0.06-0.02,0.13-0.05,0.22-0.08c0.09-0.03,0.22-0.04,0.4-0.04
				c0.25,0,0.5,0.03,0.73,0.08c0.24,0.05,0.47,0.11,0.71,0.17c0.2,0.08,0.35,0.19,0.47,0.33c0.12,0.14,0.18,0.31,0.18,0.51
				c0,0.41-0.01,0.87-0.03,1.39c-0.02,0.53-0.04,1.11-0.06,1.76c-0.04,0.67-0.06,1.2-0.06,1.59c0,0.39,0,0.65,0,0.77
				c0,0.18,0,0.38,0.01,0.61c0.01,0.22,0.03,0.45,0.07,0.7c0.02,0.3,0.04,0.57,0.07,0.8c0.03,0.23,0.05,0.44,0.07,0.62
				c0,0.18,0.01,0.34,0.03,0.47s0.03,0.23,0.03,0.29c0,0.12-0.01,0.26-0.04,0.42c-0.03,0.16-0.06,0.34-0.1,0.55
				c-0.06,0.24-0.1,0.44-0.12,0.61s-0.03,0.28-0.03,0.36v2.55c0,0.12,0,0.26,0.01,0.42c0.01,0.16,0.03,0.32,0.07,0.49
				c0.02,0.22,0.04,0.41,0.07,0.58s0.05,0.31,0.07,0.45c0,0.12,0.01,0.23,0.03,0.32s0.03,0.16,0.03,0.2c0,0.14-0.01,0.32-0.03,0.55
				s-0.04,0.46-0.06,0.73c-0.04,0.3-0.06,0.57-0.07,0.8c-0.01,0.23-0.01,0.42-0.01,0.56c0,0.22,0,0.46,0.01,0.73
				s0.03,0.54,0.07,0.82c0.06,0.69,0.11,1.25,0.16,1.68c0.05,0.43,0.07,0.74,0.07,0.92v0.42c0,0.3-0.01,0.57-0.03,0.79
				s-0.04,0.41-0.06,0.58c-0.06,0.14-0.12,0.3-0.19,0.47S142.43,27.41,142.32,27.62z"/>
			<path class="st2" d="M156.89,6.37c-0.18,0-0.32,0.02-0.43,0.05s-0.18,0.06-0.22,0.08c0.39,0.1,0.76,0.19,1.12,0.27
				c0.27,0.06,0.49,0.13,0.66,0.21c0.17,0.08,0.29,0.15,0.37,0.21c0.29,0.3,0.54,0.62,0.75,0.94c0.21,0.32,0.37,0.65,0.48,0.97
				c0.06,0.24,0.11,0.56,0.15,0.96c0.04,0.39,0.06,0.84,0.06,1.35c0,0.57-0.1,1.1-0.31,1.59c-0.21,0.5-0.51,0.96-0.93,1.38
				c-0.43,0.45-0.89,0.77-1.37,0.99c-0.48,0.21-0.98,0.32-1.51,0.32c-0.7,0-1.34-0.09-1.91-0.27c-0.57-0.18-1.08-0.47-1.53-0.88
				c-0.51-0.38-0.88-0.85-1.12-1.41c-0.23-0.56-0.35-1.2-0.35-1.92c0-0.42,0.02-0.8,0.07-1.14c0.05-0.33,0.13-0.64,0.25-0.92
				c0.1-0.24,0.25-0.52,0.47-0.82c0.22-0.3,0.47-0.64,0.76-1c0.04-0.06,0.1-0.12,0.18-0.18s0.19-0.13,0.32-0.21
				c0.27-0.14,0.48-0.26,0.63-0.35c0.15-0.09,0.23-0.15,0.25-0.17c-0.39-0.02-0.78-0.06-1.16-0.11c-0.38-0.05-0.76-0.11-1.13-0.17
				c-0.22,0.08-0.39,0.14-0.51,0.17c-0.13,0.03-0.22,0.04-0.28,0.04c-0.16,0-0.29-0.03-0.4-0.08c-0.11-0.05-0.19-0.14-0.25-0.26
				c-0.06-0.18-0.11-0.34-0.15-0.47c-0.04-0.13-0.06-0.25-0.06-0.35c0.06-0.42,0.1-0.74,0.13-0.96c0.03-0.21,0.05-0.33,0.07-0.35
				c0.06-0.18,0.19-0.32,0.4-0.41c0.21-0.09,0.46-0.14,0.75-0.14c0.06,0,0.18,0.02,0.37,0.05s0.43,0.08,0.72,0.14
				c0.14,0.04,0.26,0.07,0.38,0.09c0.12,0.02,0.22,0.04,0.32,0.06c0.08,0.02,0.14,0.04,0.19,0.06c0.05,0.02,0.09,0.03,0.13,0.03
				c0.12-0.16,0.21-0.33,0.28-0.5c0.07-0.17,0.1-0.34,0.1-0.5c-0.04-0.14-0.06-0.29-0.06-0.44s0-0.32,0-0.5l0.12-1.03
				c0.06-0.04,0.11-0.11,0.15-0.21c0.04-0.1,0.08-0.23,0.12-0.39c0.23-0.06,0.48-0.11,0.73-0.14c0.25-0.03,0.53-0.05,0.82-0.05
				s0.54,0.04,0.73,0.12c0.2,0.08,0.35,0.19,0.47,0.33c0.08,0.18,0.14,0.4,0.19,0.67C156.98,1.38,157,1.7,157,2.06
				c0,0.12-0.01,0.22-0.04,0.3s-0.05,0.15-0.07,0.21c-0.04,0.06-0.07,0.12-0.1,0.18s-0.04,0.11-0.04,0.15
				c0.06,0.14,0.11,0.27,0.16,0.38c0.05,0.11,0.07,0.21,0.07,0.29h0.32c0.06,0.02,0.12,0.03,0.19,0.03s0.13-0.02,0.19-0.06
				c0.1-0.04,0.18-0.08,0.25-0.11s0.13-0.07,0.19-0.11l0.26,0.15c0.06,0,0.14,0.01,0.23,0.03c0.1,0.02,0.24,0.04,0.41,0.06
				c0.16,0.04,0.29,0.07,0.41,0.08c0.12,0.01,0.23,0.02,0.32,0.02c0.04,0,0.08,0,0.12,0c0.04,0,0.09-0.02,0.15-0.06
				c0.08,0.08,0.16,0.18,0.24,0.3c0.08,0.12,0.15,0.25,0.21,0.39c0.06,0.18,0.1,0.35,0.13,0.5c0.03,0.15,0.04,0.3,0.04,0.44
				c0,0.26-0.13,0.48-0.4,0.65c-0.26,0.17-0.64,0.29-1.13,0.35c-0.27,0.06-0.6,0.1-0.97,0.11C157.78,6.36,157.36,6.37,156.89,6.37z
				 M155.04,9.12c-0.27,0-0.51,0.07-0.72,0.21c-0.21,0.14-0.38,0.35-0.51,0.64c-0.06,0.12-0.11,0.22-0.15,0.3
				c-0.04,0.08-0.07,0.16-0.09,0.24c-0.04,0.08-0.07,0.15-0.1,0.2s-0.04,0.1-0.04,0.14c0.02,0.32,0.07,0.61,0.15,0.85
				c0.08,0.24,0.19,0.46,0.32,0.64c0.12,0.18,0.28,0.32,0.48,0.41c0.21,0.09,0.45,0.14,0.72,0.14c0.67,0,1.17-0.16,1.53-0.47
				s0.53-0.8,0.53-1.47c0-0.28-0.05-0.53-0.16-0.74c-0.11-0.21-0.27-0.4-0.48-0.56c-0.22-0.16-0.45-0.29-0.69-0.38
				C155.57,9.17,155.31,9.12,155.04,9.12z M167.7,22.19c0,0.42-0.04,0.83-0.13,1.23c-0.09,0.39-0.22,0.79-0.4,1.2
				c-0.18,0.32-0.32,0.6-0.44,0.83c-0.12,0.23-0.22,0.43-0.29,0.59c-0.06,0.02-0.12,0.06-0.18,0.12s-0.12,0.15-0.18,0.27
				c-0.04,0.02-0.1,0.05-0.19,0.11s-0.21,0.12-0.37,0.2c-0.14,0.08-0.31,0.18-0.53,0.3c-0.21,0.12-0.45,0.25-0.7,0.39
				c-0.1,0.04-0.19,0.09-0.26,0.14c-0.08,0.05-0.17,0.11-0.26,0.17c-0.08,0.06-0.17,0.12-0.26,0.18c-0.1,0.06-0.2,0.12-0.29,0.18
				h-2.26l-0.26-0.12c-0.06-0.06-0.11-0.09-0.16-0.09s-0.1,0.03-0.16,0.09c-0.12-0.06-0.22-0.11-0.29-0.14s-0.13-0.05-0.15-0.05
				c-0.04,0-0.07,0-0.1,0.02c-0.03,0.01-0.06,0.02-0.1,0.02c-0.02,0-0.05,0-0.09,0s-0.07,0-0.09,0c-0.22,0-0.46-0.06-0.73-0.17
				c-0.27-0.11-0.57-0.28-0.88-0.5c-0.35-0.2-0.64-0.41-0.87-0.62c-0.23-0.21-0.38-0.41-0.46-0.59c-0.06-0.08-0.14-0.23-0.24-0.46
				s-0.23-0.51-0.41-0.88c-0.02-0.02-0.04-0.05-0.06-0.09c-0.02-0.04-0.05-0.08-0.09-0.12c-0.02-0.04-0.04-0.09-0.07-0.14
				c-0.03-0.05-0.05-0.11-0.07-0.17c-0.02-0.08-0.04-0.16-0.06-0.24c-0.02-0.08-0.03-0.16-0.03-0.24c-0.02-0.06-0.03-0.12-0.04-0.17
				c-0.01-0.05-0.01-0.1-0.01-0.14c-0.02-0.06-0.04-0.15-0.07-0.26c-0.03-0.11-0.06-0.24-0.1-0.38c0.04-0.12,0.09-0.34,0.16-0.65
				c0.07-0.31,0.16-0.73,0.28-1.26c0.08-0.49,0.18-0.91,0.29-1.27c0.12-0.36,0.25-0.67,0.38-0.91c0.02-0.06,0.07-0.13,0.16-0.2
				c0.09-0.07,0.19-0.16,0.31-0.26c0.12-0.08,0.21-0.17,0.28-0.26c0.07-0.09,0.12-0.18,0.16-0.26c0.02-0.02,0.04-0.05,0.07-0.08
				s0.06-0.08,0.1-0.14c0.04-0.04,0.08-0.09,0.13-0.15c0.05-0.06,0.1-0.13,0.16-0.21c0.04-0.06,0.12-0.13,0.25-0.2
				c0.13-0.07,0.31-0.15,0.54-0.23c0.29-0.22,0.62-0.4,0.97-0.53c0.35-0.13,0.75-0.2,1.2-0.2h2.06c0,0.02,0.01,0.04,0.04,0.05
				s0.06,0.03,0.1,0.04c0.04,0.02,0.08,0.04,0.13,0.05c0.05,0.01,0.1,0.01,0.16,0.01c0.06,0.04,0.11,0.07,0.15,0.08
				c0.04,0.01,0.08,0.03,0.12,0.05c0.04,0.02,0.07,0.03,0.1,0.03s0.05,0,0.07,0c0.65,0.3,1.22,0.66,1.72,1.06
				c0.5,0.4,0.92,0.83,1.28,1.27c0.31,0.48,0.55,1.04,0.72,1.65C167.61,20.79,167.7,21.46,167.7,22.19z M164.7,21.92
				c0-0.18-0.03-0.37-0.07-0.56c-0.05-0.19-0.1-0.38-0.16-0.56c-0.08-0.18-0.17-0.36-0.28-0.53s-0.23-0.35-0.37-0.53
				c-0.16-0.06-0.29-0.13-0.41-0.2c-0.12-0.07-0.23-0.14-0.32-0.2s-0.19-0.12-0.28-0.17c-0.09-0.05-0.16-0.1-0.22-0.14
				c-0.24-0.12-0.47-0.21-0.69-0.27c-0.23-0.06-0.45-0.09-0.66-0.09c-0.04,0-0.12,0.03-0.25,0.08c-0.13,0.05-0.29,0.11-0.49,0.17
				c-0.23,0.1-0.42,0.17-0.54,0.2c-0.13,0.03-0.24,0.06-0.34,0.09c-0.1,0.03-0.24,0.15-0.41,0.36c-0.18,0.21-0.32,0.5-0.44,0.86
				c-0.12,0.26-0.21,0.54-0.26,0.82s-0.1,0.56-0.12,0.82c0.06,0.12,0.1,0.24,0.13,0.36s0.04,0.24,0.04,0.36
				c-0.02,0.12-0.03,0.23-0.03,0.32c0,0.09,0,0.17,0,0.23c0,0.18,0.04,0.37,0.13,0.56c0.09,0.19,0.25,0.36,0.49,0.5
				c0.18,0.16,0.39,0.31,0.63,0.44c0.25,0.13,0.52,0.26,0.84,0.38c0.14,0.06,0.28,0.11,0.43,0.15c0.15,0.04,0.3,0.06,0.46,0.06
				c0.45,0,0.87-0.09,1.26-0.26c0.39-0.17,0.73-0.43,1.03-0.77s0.52-0.72,0.68-1.12C164.62,22.88,164.7,22.42,164.7,21.92z
				 M173.37,13.79c0,0.2-0.06,0.39-0.19,0.56c-0.13,0.17-0.31,0.33-0.54,0.47s-0.47,0.24-0.69,0.3c-0.23,0.06-0.45,0.09-0.66,0.09
				c-0.16,0-0.29-0.01-0.4-0.03c-0.11-0.02-0.2-0.06-0.28-0.12c-0.12-0.12-0.21-0.24-0.28-0.35c-0.07-0.11-0.11-0.21-0.13-0.29
				c-0.04-0.06-0.06-0.15-0.07-0.27s-0.01-0.27-0.01-0.46c0-0.08,0-0.21,0.01-0.39c0.01-0.18,0.03-0.39,0.07-0.64
				c0.02-0.22,0.04-0.43,0.06-0.62c0.02-0.19,0.03-0.36,0.03-0.5c0-0.06,0-0.13-0.01-0.2c-0.01-0.07-0.01-0.14-0.01-0.2
				c0-0.08-0.01-0.15-0.01-0.21c-0.01-0.06-0.01-0.13-0.01-0.21c-0.02-0.12-0.04-0.23-0.07-0.32s-0.06-0.19-0.1-0.29
				c-0.12,0.16-0.22,0.28-0.31,0.36s-0.16,0.13-0.22,0.15c-0.08,0.04-0.18,0.07-0.31,0.08c-0.13,0.01-0.28,0.01-0.46,0.01
				l-1.21-0.03c-0.1,0-0.19-0.01-0.28-0.04c-0.09-0.03-0.17-0.09-0.25-0.17c-0.06-0.02-0.11-0.05-0.15-0.08
				c-0.04-0.03-0.08-0.06-0.12-0.08c-0.02,0-0.04-0.01-0.07-0.03c-0.03-0.02-0.06,0-0.09,0.04c-0.03,0.05-0.05,0.14-0.06,0.27
				c-0.01,0.13-0.01,0.29-0.01,0.47c-0.02,0.18-0.03,0.34-0.03,0.48c0,0.14,0,0.25,0,0.33c0,0.1,0.02,0.25,0.04,0.44
				s0.09,0.42,0.19,0.68c0,0.1,0.01,0.19,0.03,0.26c0.02,0.07,0.03,0.14,0.03,0.2c0.02,0.06,0.03,0.12,0.04,0.18s0.01,0.1,0.01,0.12
				c0,0.08-0.01,0.17-0.04,0.26s-0.07,0.18-0.13,0.26c-0.22,0.1-0.42,0.2-0.6,0.29c-0.19,0.09-0.37,0.19-0.54,0.29
				c-0.18,0.06-0.32,0.11-0.44,0.14c-0.12,0.03-0.22,0.04-0.29,0.04c-0.16,0-0.29-0.01-0.41-0.03c-0.12-0.02-0.21-0.06-0.26-0.12
				c-0.18-0.18-0.3-0.38-0.38-0.59c-0.08-0.21-0.12-0.44-0.12-0.68c0-0.18,0-0.39,0.01-0.62c0.01-0.23,0.03-0.5,0.07-0.8
				c0-0.14,0.01-0.28,0.03-0.41c0.02-0.13,0.03-0.25,0.03-0.35c0.02-0.08,0.03-0.16,0.04-0.23c0.01-0.07,0.01-0.13,0.01-0.17
				c0-0.06-0.01-0.15-0.03-0.27s-0.04-0.27-0.06-0.45c-0.04-0.14-0.06-0.27-0.07-0.39s-0.01-0.24-0.01-0.36l0.09-2.15
				c0-0.02,0-0.07-0.01-0.14c-0.01-0.07-0.02-0.17-0.04-0.29c0-0.1-0.01-0.22-0.03-0.35c-0.02-0.13-0.03-0.28-0.03-0.44
				c-0.04-0.3-0.06-0.58-0.07-0.82c-0.01-0.24-0.02-0.44-0.02-0.61c0-0.12,0-0.25,0.02-0.39c0.01-0.14,0.03-0.27,0.07-0.39
				c0-0.02,0.01-0.06,0.03-0.12s0.03-0.14,0.03-0.24c0-0.04,0-0.09-0.01-0.15s-0.01-0.12-0.01-0.18s0-0.13-0.01-0.2
				c-0.01-0.07-0.01-0.15-0.01-0.23c-0.02-0.12-0.04-0.23-0.06-0.32c-0.02-0.09-0.04-0.17-0.06-0.23c0.02-0.02,0.04-0.1,0.07-0.24
				c0.03-0.14,0.06-0.33,0.1-0.58c0.02-0.2,0.06-0.38,0.13-0.53c0.07-0.15,0.17-0.26,0.31-0.32c0.08,0,0.16,0.01,0.24,0.02
				c0.08,0.01,0.16,0.01,0.23,0.01s0.16,0,0.24,0s0.17,0,0.26,0c0.16,0,0.32,0.02,0.5,0.05c0.18,0.03,0.37,0.07,0.59,0.11
				c0.06,0.24,0.11,0.48,0.15,0.71s0.08,0.47,0.12,0.71c0,0.24,0.01,0.5,0.03,0.77c0.02,0.27,0.03,0.54,0.03,0.8
				c0,0.16,0,0.33,0,0.5s0.01,0.34,0.03,0.5c0,0.18,0.01,0.32,0.04,0.42c0.03,0.1,0.06,0.16,0.1,0.18l0.03,0.42l-0.26,1.27
				c0.31-0.24,0.64-0.43,0.98-0.56c0.34-0.13,0.7-0.2,1.07-0.2c0.27,0,0.54,0.04,0.81,0.12c0.26,0.08,0.51,0.19,0.75,0.33
				c-0.04-0.08-0.06-0.18-0.07-0.3c-0.01-0.12-0.01-0.26-0.01-0.42c-0.02-0.12-0.03-0.26-0.03-0.41s0-0.3,0-0.44
				c0-0.12,0-0.26,0.01-0.41c0.01-0.15,0.04-0.34,0.1-0.56c0.02-0.08,0.03-0.16,0.04-0.24c0.01-0.08,0.02-0.15,0.04-0.21
				s0.03-0.11,0.04-0.15c0.01-0.04,0.01-0.08,0.01-0.12c0-0.02,0-0.05-0.01-0.09c-0.01-0.04-0.01-0.07-0.01-0.09
				c0-0.04,0-0.08,0-0.11c0-0.03,0-0.06,0-0.11c-0.04-0.08-0.07-0.16-0.1-0.24c-0.03-0.08-0.04-0.15-0.04-0.21
				c-0.02-0.06-0.03-0.12-0.04-0.17c-0.01-0.05-0.01-0.11-0.01-0.17l0.18-0.58V1.55c0-0.06,0-0.12,0-0.18s0.02-0.12,0.06-0.18
				c0-0.02,0.01-0.05,0.03-0.09c0.02-0.04,0.04-0.08,0.06-0.12c0.02-0.04,0.04-0.08,0.07-0.12c0.03-0.04,0.06-0.09,0.1-0.15l1-0.06
				c0.21,0,0.43,0.02,0.63,0.05c0.21,0.03,0.4,0.07,0.57,0.11l0.47,2.27c-0.02,0.06-0.03,0.12-0.04,0.17
				c-0.01,0.05-0.02,0.1-0.04,0.14c0,0.04,0,0.09-0.01,0.14s-0.01,0.09-0.01,0.11c0,0.18,0,0.38,0.01,0.59
				c0.01,0.21,0.03,0.43,0.07,0.65c0,0.12,0,0.23,0.01,0.33c0.01,0.1,0.02,0.19,0.04,0.27c0,0.1,0,0.19,0.01,0.26
				c0.01,0.07,0.02,0.14,0.04,0.2c-0.04,0.06-0.07,0.16-0.1,0.29c-0.03,0.13-0.05,0.32-0.07,0.56c-0.06,0.26-0.09,0.46-0.1,0.61
				s-0.01,0.23-0.01,0.27c0,0.18,0,0.39,0,0.62c0,0.23,0.02,0.49,0.06,0.77c0.02,0.3,0.04,0.55,0.06,0.73s0.03,0.3,0.03,0.36l0.06,2
				c0,0.12,0,0.24,0.01,0.36c0.01,0.12,0.04,0.27,0.1,0.45c0,0.1,0.01,0.19,0.03,0.27c0.02,0.08,0.03,0.16,0.03,0.24
				c0.02,0.06,0.03,0.12,0.04,0.18S173.37,13.75,173.37,13.79z"/>
		</g>
	</g>
</g>
<g id="Layer_2">
	<circle class="st2" cx="-131.28" cy="-269.45" r="20.44"/>
	<circle class="st1" cx="-71.72" cy="-269.45" r="20.44"/>
	<circle class="st0" cx="-12.17" cy="-269.45" r="20.44"/>
</g>
</svg>
